<?xml version="1.0" encoding="utf-8"?>
<!-- Generator: Adobe Illustrator 26.0.1, SVG Export Plug-In . SVG Version: 6.00 Build 0)  -->
<svg version="1.1" xmlns="http://www.w3.org/2000/svg" xmlns:xlink="http://www.w3.org/1999/xlink" x="0px" y="0px"
	 viewBox="0 0 1557.56 720.95" style="enable-background:new 0 0 1557.56 720.95;" xml:space="preserve">
<style type="text/css">
	.st0{fill:none;stroke:#FFFFFF;stroke-width:3;stroke-miterlimit:10;}
	.st1{fill:#FFFFFF;}
	.st2{font-family:'xkcdScript';}
	.st3{font-size:55.8322px;}
	.st4{opacity:0.2;fill:#FFFFFF;}
	.st5{font-size:72px;}
	.st6{fill:#065A9D;}
	.st7{fill:#0C4580;}
	.st8{fill:#669AD2;}
</style>
<g id="Layer_1">
</g>
<g id="Layer_2">
	<g>
		<path class="st0" d="M952.1,360.8c0,6.02-0.47,11.93-0.91,17.87c-0.45,5.99-0.16,12.01-1.05,17.92
			c-0.89,5.93-2.88,11.61-4.2,17.45c-1.32,5.84-1.39,12-3.13,17.74c-1.74,5.72-4.42,11.14-6.57,16.75
			c-2.13,5.58-4.64,10.99-7.17,16.45c-2.5,5.41-3.06,11.89-5.94,17.17c-2.85,5.23-7.56,9.49-10.77,14.59
			c-3.17,5.04-8.28,8.75-11.79,13.65c-3.46,4.84-4.79,11.3-8.57,16c-3.73,4.64-6.63,10.13-10.65,14.62
			c-3.97,4.43-9.51,7.52-13.76,11.8c-4.19,4.22-7.06,9.96-11.51,14.03c-4.39,4.01-9.92,6.89-14.56,10.75
			c-4.57,3.8-10.22,6.32-15.02,9.97c-4.73,3.6-8.98,7.92-13.93,11.37c-4.88,3.4-9.94,6.63-15.02,9.87
			c-5.02,3.2-11.44,4.08-16.65,7.12c-5.14,3-10,6.42-15.31,9.26c-5.25,2.8-10.32,5.91-15.74,8.56c-5.35,2.61-9.41,8.1-14.91,10.55
			c-5.44,2.42-11.99,2.36-17.58,4.63c-5.52,2.24-10.15,6.93-15.8,9.01c-5.59,2.05-11.47,3.54-17.19,5.44
			c-5.65,1.87-12.25,0.85-18.03,2.56c-5.71,1.69-10.52,6.76-16.34,8.3c-5.76,1.52-12.11,0.91-17.98,2.27
			c-5.81,1.34-11.94,1.22-17.84,2.4c-5.84,1.17-11.18,5.27-17.11,6.27c-5.88,1-12.21-0.68-18.17,0.16
			c-5.9,0.83-11.65,3.11-17.63,3.78c-5.93,0.66-11.76,2.92-17.76,3.42c-5.94,0.49-12.11-1.42-18.12-1.09
			c-5.95,0.33-11.98-0.85-17.99-0.68c-5.96,0.16-11.91,0.87-17.93,0.87c-6.02,0-11.94-1.65-17.9-1.81
			c-6.01-0.16-12.18,4.16-18.14,3.84c-6.01-0.33-11.68-5.11-17.62-5.6c-6-0.5-11.92-0.88-17.84-1.54
			c-5.98-0.67-12.29,1.63-18.19,0.8c-5.96-0.84-11.84-2.18-17.71-3.18c-5.93-1.01-11.4-4.29-17.25-5.46
			c-5.9-1.18-11.55-3.11-17.36-4.45c-5.87-1.36-12.56,0.82-18.32-0.7c-5.82-1.53-11.37-4.04-17.08-5.73
			c-5.77-1.71-11.15-4.57-16.81-6.44c-5.72-1.89-12.34-1.17-17.93-3.22c-5.65-2.08-10.07-7.31-15.59-9.54
			c-5.58-2.27-10.89-4.98-16.33-7.4c-5.5-2.45-11.82-3.06-17.16-5.67c-5.42-2.65-11.42-4.16-16.67-6.96
			c-5.32-2.84-10.72-5.61-15.86-8.61c-5.21-3.04-10.13-6.63-15.14-9.82c-5.09-3.24-10.04-6.73-14.92-10.13
			c-4.95-3.45-10.22-6.52-14.96-10.12c-4.8-3.65-7.36-10.09-11.93-13.9c-4.64-3.86-9.57-7.25-13.96-11.26
			c-4.45-4.07-7.46-9.49-11.64-13.71c-4.25-4.28-10.35-6.69-14.32-11.11c-4.02-4.49-6.05-10.57-9.77-15.21
			c-3.78-4.7-8.35-8.65-11.81-13.49c-3.5-4.9-7.39-9.48-10.56-14.52c-3.2-5.1-7.53-9.55-10.38-14.78
			c-2.88-5.28-3.6-11.64-6.11-17.06c-2.52-5.45-6.35-10.34-8.48-15.92c-2.14-5.61-4.44-11.22-6.18-16.94
			c-1.74-5.73-0.25-12.29-1.57-18.13c-1.32-5.83-6.05-11.03-6.94-16.96c-0.89-5.91-2.24-11.93-2.69-17.93
			c-0.44-5.94-0.03-12.1-0.03-18.13c0-6.02,1.94-12.01,2.39-17.95c0.45-5.99,1.08-11.95,1.96-17.86c0.89-5.93,3.01-11.6,4.33-17.43
			c1.32-5.84,1.89-11.85,3.63-17.58c1.74-5.72,2.8-11.72,4.95-17.33c2.13-5.58,3.37-11.67,5.89-17.13
			c2.5-5.41,8.99-8.86,11.86-14.15c2.85-5.23,3.13-11.97,6.34-17.07c3.17-5.04,7.52-9.37,11.03-14.27
			c3.46-4.84,8.78-8.24,12.55-12.94c3.73-4.64,6.2-10.3,10.22-14.79c3.97-4.43,6.14-10.67,10.39-14.96
			c4.19-4.22,8.45-8.6,12.9-12.67c4.39-4.01,10.73-5.93,15.36-9.79c4.57-3.8,9.47-7.23,14.27-10.88c4.73-3.6,9.55-7.12,14.5-10.56
			c4.88-3.4,10.63-5.47,15.72-8.71c5.02-3.2,8.24-9.4,13.45-12.44c5.14-3,11.03-4.8,16.35-7.64c5.25-2.8,11.32-4.03,16.74-6.67
			c5.35-2.61,11.01-4.49,16.52-6.94c5.44-2.42,10.91-4.66,16.5-6.92c5.52-2.24,10.57-5.64,16.22-7.72
			c5.59-2.05,10.58-5.93,16.3-7.82c5.65-1.87,11.12-4.62,16.9-6.33c5.71-1.69,11.94-1.81,17.76-3.34
			c5.76-1.52,12.15-0.55,18.01-1.91c5.81-1.34,10.96-5.82,16.86-7c5.84-1.17,12.41,1.46,18.34,0.46c5.88-1,11.37-4.42,17.33-5.26
			c5.9-0.83,11.93-0.86,17.91-1.52c5.93-0.66,11.73-2.92,17.73-3.42c5.94-0.49,11.93-1.2,17.94-1.53c5.95-0.33,11.98-0.4,18-0.56
			c5.96-0.16,11.98,2.35,18,2.35c6.02,0,11.98-0.56,17.94-0.4c6.01,0.16,11.91,1.57,17.87,1.9c6.01,0.33,11.99-0.03,17.94,0.47
			c6,0.5,12.14-0.85,18.07-0.19c5.98,0.67,12.04,0.76,17.94,1.59c5.96,0.84,11.34,5.16,17.22,6.15c5.93,1.01,12.25-0.33,18.09,0.84
			c5.9,1.18,11.4,4.06,17.2,5.41c5.87,1.36,12.5-0.47,18.26,1.05c5.82,1.53,11.34,4.23,17.05,5.92c5.77,1.71,10.45,6.75,16.1,8.62
			c5.72,1.89,11.77,2.56,17.36,4.61c5.65,2.08,11.51,3.5,17.02,5.74c5.58,2.27,10.48,5.97,15.92,8.39
			c5.5,2.45,11.39,3.92,16.74,6.53c5.42,2.65,9.97,6.8,15.22,9.6c5.32,2.84,12.67,1.97,17.81,4.97c5.21,3.04,9.56,7.51,14.58,10.71
			c5.09,3.24,10.26,6.34,15.14,9.73c4.95,3.45,9.23,7.78,13.97,11.38c4.8,3.65,8.11,9.04,12.68,12.84
			c4.64,3.86,11.64,4.92,16.03,8.93c4.45,4.07,6.32,10.77,10.51,14.99c4.25,4.28,10.66,6.45,14.62,10.88
			c4.02,4.49,7.02,9.85,10.75,14.49c3.78,4.7,6.51,10.11,9.97,14.95c3.5,4.9,6.51,10.01,9.67,15.05c3.2,5.1,5.34,10.65,8.19,15.88
			c2.88,5.28,7.96,9.36,10.47,14.77c2.52,5.45,6.46,10.38,8.6,15.96c2.14,5.61,1.85,12.1,3.59,17.82
			c1.74,5.73,1.45,11.91,2.77,17.75c1.32,5.83,6.57,10.94,7.46,16.87c0.89,5.91-0.96,12.19-0.51,18.19
			C952.16,348.83,952.1,354.78,952.1,360.8z"/>
	</g>
	<g>
		<path class="st0" d="M1523.17,360.8c0,6.02-0.47,11.93-0.91,17.87c-0.45,5.99-0.16,12.01-1.05,17.92
			c-0.89,5.93-2.88,11.61-4.2,17.45c-1.32,5.84-1.39,12-3.13,17.74c-1.74,5.72-4.42,11.14-6.57,16.75
			c-2.13,5.58-4.64,10.99-7.17,16.45c-2.5,5.41-3.06,11.89-5.94,17.17c-2.85,5.23-7.56,9.49-10.77,14.59
			c-3.17,5.04-8.28,8.75-11.79,13.65c-3.46,4.84-4.79,11.3-8.57,16c-3.73,4.64-6.63,10.13-10.65,14.62
			c-3.97,4.43-9.51,7.52-13.76,11.8c-4.19,4.22-7.06,9.96-11.51,14.03c-4.39,4.01-9.92,6.89-14.56,10.75
			c-4.57,3.8-10.22,6.32-15.02,9.97c-4.73,3.6-8.98,7.92-13.93,11.37c-4.88,3.4-9.94,6.63-15.02,9.87
			c-5.02,3.2-11.44,4.08-16.65,7.12c-5.14,3-10,6.42-15.31,9.26c-5.25,2.8-10.32,5.91-15.74,8.56c-5.35,2.61-9.41,8.1-14.91,10.55
			c-5.44,2.42-11.99,2.36-17.58,4.63c-5.52,2.24-10.15,6.93-15.8,9.01c-5.59,2.05-11.47,3.54-17.19,5.44
			c-5.65,1.87-12.25,0.85-18.03,2.56c-5.71,1.69-10.52,6.76-16.34,8.3c-5.76,1.52-12.11,0.91-17.98,2.27
			c-5.81,1.34-11.94,1.22-17.84,2.4c-5.84,1.17-11.18,5.27-17.11,6.27c-5.88,1-12.21-0.68-18.17,0.16
			c-5.9,0.83-11.65,3.11-17.63,3.78c-5.93,0.66-11.76,2.92-17.76,3.42c-5.94,0.49-12.11-1.42-18.12-1.09
			c-5.95,0.33-11.98-0.85-17.99-0.68c-5.96,0.16-11.91,0.87-17.93,0.87c-6.02,0-11.94-1.65-17.9-1.81
			c-6.01-0.16-12.18,4.16-18.14,3.84c-6.01-0.33-11.68-5.11-17.62-5.6c-6-0.5-11.92-0.88-17.84-1.54
			c-5.98-0.67-12.29,1.63-18.19,0.8c-5.96-0.84-11.84-2.18-17.71-3.18c-5.93-1.01-11.4-4.29-17.25-5.46
			c-5.9-1.18-11.55-3.11-17.36-4.45c-5.87-1.36-12.56,0.82-18.32-0.7c-5.82-1.53-11.37-4.04-17.08-5.73
			c-5.77-1.71-11.15-4.57-16.81-6.44c-5.72-1.89-12.34-1.17-17.93-3.22c-5.65-2.08-10.07-7.31-15.59-9.54
			c-5.58-2.27-10.89-4.98-16.33-7.4c-5.5-2.45-11.82-3.06-17.16-5.67c-5.42-2.65-11.42-4.16-16.67-6.96
			c-5.32-2.84-10.72-5.61-15.86-8.61c-5.21-3.04-10.13-6.63-15.14-9.82c-5.09-3.24-10.04-6.73-14.92-10.13
			c-4.95-3.45-10.22-6.52-14.96-10.12c-4.8-3.65-7.36-10.09-11.93-13.9c-4.64-3.86-9.57-7.25-13.96-11.26
			c-4.45-4.07-7.46-9.49-11.64-13.71c-4.25-4.28-10.35-6.69-14.32-11.11c-4.02-4.49-6.05-10.57-9.77-15.21
			c-3.78-4.7-8.35-8.65-11.81-13.49c-3.5-4.9-7.39-9.48-10.56-14.52c-3.2-5.1-7.53-9.55-10.38-14.78
			c-2.88-5.28-3.6-11.64-6.11-17.06c-2.52-5.45-6.35-10.34-8.48-15.92c-2.14-5.61-4.44-11.22-6.18-16.94
			c-1.74-5.73-0.25-12.29-1.57-18.13c-1.32-5.83-6.05-11.03-6.94-16.96c-0.89-5.91-2.24-11.93-2.69-17.93
			c-0.44-5.94-0.03-12.1-0.03-18.13c0-6.02,1.94-12.01,2.39-17.95c0.45-5.99,1.08-11.95,1.96-17.86c0.89-5.93,3.01-11.6,4.33-17.43
			c1.32-5.84,1.89-11.85,3.63-17.58c1.74-5.72,2.8-11.72,4.95-17.33c2.13-5.58,3.37-11.67,5.89-17.13
			c2.5-5.41,8.99-8.86,11.86-14.15c2.85-5.23,3.13-11.97,6.34-17.07c3.17-5.04,7.52-9.37,11.03-14.27
			c3.46-4.84,8.78-8.24,12.55-12.94c3.73-4.64,6.2-10.3,10.22-14.79c3.97-4.43,6.14-10.67,10.39-14.96
			c4.19-4.22,8.45-8.6,12.9-12.67c4.39-4.01,10.73-5.93,15.36-9.79c4.57-3.8,9.47-7.23,14.27-10.88c4.73-3.6,9.55-7.12,14.5-10.56
			c4.88-3.4,10.63-5.47,15.72-8.71c5.02-3.2,8.24-9.4,13.45-12.44c5.14-3,11.03-4.8,16.35-7.64c5.25-2.8,11.32-4.03,16.74-6.67
			c5.35-2.61,11.01-4.49,16.52-6.94c5.44-2.42,10.91-4.66,16.5-6.92c5.52-2.24,10.57-5.64,16.22-7.72
			c5.59-2.05,10.58-5.93,16.3-7.82c5.65-1.87,11.12-4.62,16.9-6.33c5.71-1.69,11.94-1.81,17.76-3.34
			c5.76-1.52,12.15-0.55,18.01-1.91c5.81-1.34,10.96-5.82,16.86-7c5.84-1.17,12.41,1.46,18.34,0.46c5.88-1,11.37-4.42,17.33-5.26
			c5.9-0.83,11.93-0.86,17.91-1.52c5.93-0.66,11.73-2.92,17.73-3.42c5.94-0.49,11.93-1.2,17.94-1.53c5.95-0.33,11.98-0.4,18-0.56
			c5.96-0.16,11.98,2.35,18,2.35c6.02,0,11.98-0.56,17.94-0.4c6.01,0.16,11.91,1.57,17.87,1.9c6.01,0.33,11.99-0.03,17.94,0.47
			c6,0.5,12.14-0.85,18.07-0.19c5.98,0.67,12.04,0.76,17.94,1.59c5.96,0.84,11.34,5.16,17.22,6.15c5.93,1.01,12.25-0.33,18.09,0.84
			c5.9,1.18,11.4,4.06,17.2,5.41c5.87,1.36,12.5-0.47,18.26,1.05c5.82,1.53,11.34,4.23,17.05,5.92c5.77,1.71,10.45,6.75,16.1,8.62
			c5.72,1.89,11.77,2.56,17.36,4.61c5.65,2.08,11.51,3.5,17.02,5.74c5.58,2.27,10.48,5.97,15.92,8.39
			c5.5,2.45,11.39,3.92,16.74,6.53c5.42,2.65,9.97,6.8,15.22,9.6c5.32,2.84,12.67,1.97,17.81,4.97c5.21,3.04,9.56,7.51,14.58,10.71
			c5.09,3.24,10.26,6.34,15.14,9.73c4.95,3.45,9.23,7.78,13.97,11.38c4.8,3.65,8.11,9.04,12.68,12.84
			c4.64,3.86,11.64,4.92,16.03,8.93c4.45,4.07,6.32,10.77,10.51,14.99c4.25,4.28,10.66,6.45,14.62,10.88
			c4.02,4.49,7.02,9.85,10.75,14.49c3.78,4.7,6.51,10.11,9.97,14.95c3.5,4.9,6.51,10.01,9.67,15.05c3.2,5.1,5.34,10.65,8.19,15.88
			c2.88,5.28,7.96,9.36,10.47,14.77c2.52,5.45,6.46,10.38,8.6,15.96c2.14,5.61,1.85,12.1,3.59,17.82
			c1.74,5.73,1.45,11.91,2.77,17.75c1.32,5.83,6.57,10.94,7.46,16.87c0.89,5.91-0.96,12.19-0.51,18.19
			C1523.23,348.83,1523.17,354.78,1523.17,360.8z"/>
	</g>
	<text transform="matrix(1 0 0 1 241.3883 372.782)" class="st1 st2 st3">C++</text>
</g>
<g id="Layer_3">
</g>
<g id="Layer_4">
	<path class="st6" d="M450.58,425.78c1.86-3.23,3.02-6.86,3.02-10.12V302.39c0-3.26-1.16-6.9-3.02-10.12l-115.63,66.76
		L450.58,425.78z"/>
	<path class="st7" d="M345.23,490.09l98.09-56.63c2.83-1.63,5.39-4.45,7.26-7.67l-115.62-66.76l-115.62,66.76
		c1.86,3.23,4.43,6.04,7.26,7.67l98.09,56.63C330.33,493.35,339.58,493.35,345.23,490.09z"/>
	<path class="st8" d="M450.58,292.26c-1.86-3.23-4.43-6.04-7.26-7.67l-98.09-56.63c-5.65-3.26-14.9-3.26-20.55,0l-98.09,56.63
		c-5.65,3.26-10.27,11.27-10.27,17.8v113.27c0,3.26,1.16,6.9,3.02,10.12l115.62-66.76L450.58,292.26z"/>
	<g>
		<path class="st1" d="M334.95,438.12c-43.61,0-79.1-35.48-79.1-79.1s35.48-79.1,79.1-79.1c28.14,0,54.39,15.14,68.5,39.52
			l-34.23,19.81c-7.06-12.2-20.19-19.78-34.27-19.78c-21.81,0-39.55,17.74-39.55,39.55c0,21.81,17.74,39.55,39.55,39.55
			c14.08,0,27.21-7.58,34.27-19.79l34.23,19.81C389.34,422.97,363.1,438.12,334.95,438.12z"/>
	</g>
	<g>
		<polygon class="st1" points="414.05,354.63 405.26,354.63 405.26,345.84 396.47,345.84 396.47,354.63 387.68,354.63 
			387.68,363.42 396.47,363.42 396.47,372.2 405.26,372.2 405.26,363.42 414.05,363.42 		"/>
	</g>
	<g>
		<polygon class="st1" points="447,354.63 438.21,354.63 438.21,345.84 429.43,345.84 429.43,354.63 420.64,354.63 420.64,363.42 
			429.43,363.42 429.43,372.2 438.21,372.2 438.21,363.42 447,363.42 		"/>
	</g>
	<path class="st1" d="M1072.22,356.4c0.91-3.07,1.14-6.18,1.12-9.36c-0.02-3.15-1.46-5.98-1.81-9.06c1.4,0.81,2.26,2.04,3.07,3.31
		c1.09,1.72,1.99,3.56,3.26,5.16c0.15,0.19,0.31,0.37,0.45,0.56c0.55,0.76,1.1,0.9,2,0.36c3.21-1.92,6.61-3.4,10.33-4
		c1.83-0.29,3.66-0.29,5.47,0.19c0.81,0.21,1.57,0.52,2.31,1.03c-0.33,0.43-0.76,0.39-1.12,0.49c-4.66,1.34-9.06,3.2-12.57,6.66
		c-2.87,2.83-4.82,6.24-6,10.09c-0.59,1.94-0.12,3.63,1.24,5.09c3,3.2,6.65,5.38,10.89,6.44c5.15,1.29,10.84-2.95,11.22-8.25
		c0.12-1.71-0.45-3.2-1.55-4.53c-0.63-0.76-1.35-1.45-1.85-2.48c1.49-0.11,2.8,0.25,4.03,0.75c8.28,3.33,12.95,9.59,14.03,18.32
		c1.39,11.17-7.31,18.8-16.23,20.01c-5.17,0.7-9.83-0.49-14-3.61c-0.68-0.51-1.08-0.58-1.79,0.07c-2.63,2.44-5.8,3.67-9.4,3.48
		c-1.8-0.09-3.39-0.77-4.44-2.44c1.03-0.94,2.04-1.79,2.96-2.73c2.51-2.55,3.34-5.55,2.25-9.01c-0.12-0.38-0.3-0.74-0.5-1.08
		c-1.06-1.8-2.44-1.96-3.87-0.45c-0.75,0.78-1.33,1.7-1.93,2.59c-6.11,9.15-14.69,13.83-25.68,13.63
		c-12.26-0.23-21.64-5.81-27.65-16.46c-3.47-6.15-4.17-12.91-2.45-19.85c1.02-4.13,2.22-8.17,4.56-11.78
		c1.7-2.62,3.86-4.77,6.55-6.46c0.96,0.54,1.34,1.46,1.66,2.4c0.55,1.64,0.68,3.36,1.01,5.04c0.13,0.65,0.16,1.34,0.58,1.99
		c1.29-0.48,2.29-1.34,3.32-2.13c2-1.53,3.99-3.08,6.55-3.6c1.78-0.36,1.72-0.34,2.79,1.18c1.33,1.9,1.44,3.7,0.05,5.63
		c-1.03,1.42-1.89,2.96-2.83,4.45c-2.46,3.93-2.8,8.19-2.05,12.59c0.7,4.12,2.11,7.93,5.26,10.92c4.85,4.61,12.69,5.92,17.96,2.66
		c3.66-2.26,5.96-5.75,7.15-9.87c0.59-2.06-0.36-3.82-1.76-5.34c-1.28-1.39-2.84-2.45-4.31-3.62c-0.5-0.4-0.99-0.8-1.49-1.2
		c-1.23-0.98-2.16-2.11-2.09-3.82c0.03-0.79-0.44-1.54-0.25-2.42c0.91,0.34,1.6,0.96,2.25,1.57c5.42,5.08,10.96,10.04,16,15.51
		c1.66,1.8,3.09,3.76,4.11,6.01c1.26,2.77,1.31,5.54,0.15,8.36c-0.54,1.32-1.24,2.59-1.47,4.16c1.34,0.18,2.39-0.37,3.29-1.14
		c0.94-0.8,1.81-1.69,2.65-2.59c0.74-0.78,1.32-0.95,2.29-0.18c3.08,2.45,6.51,4.15,10.5,4.62c8.08,0.94,16.42-5.15,17.58-13.12
		c0.77-5.32-1.01-10-4.51-14.03c-1.2-1.38-2.56-2.59-4.3-3.5c-0.48,1.56-0.88,3.01-1.37,4.43c-0.63,1.87-1.52,3.62-2.82,5.11
		c-3.08,3.51-7.75,4.44-12.63,2.54c-4.04-1.57-7.26-4.3-10.24-7.35c-2.62-2.69-5.27-5.35-7.9-8.03c-2.41-2.45-4.73-4.98-6.94-8
		c2.19,0.21,4.33-0.52,5.66,1.8c0.45,0.79,1.16,1.43,1.91,1.96C1071.22,356.3,1071.58,356.57,1072.22,356.4z"/>
	<path class="st1" d="M1171.88,347.9c1.13-2.84,3.83-3.96,6.37-2.4c1.93,1.19,3.52,1.04,5.45,0c2.71-1.47,5.78-1.56,8.78-1.25
		c6.25,0.65,11.19,3.44,13.96,9.3c1.97,4.16,1.84,8.27-0.75,12.19c-0.62,0.93-1.21,1.88-1.83,2.81c-0.21,0.32-0.37,0.62-0.01,0.95
		c2.02,1.84,2.5,4.39,3.07,6.87c0.59,2.52,0.9,5.12,1.89,7.54c0.44,1.09,1.04,2.07,2,2.79c2.18,1.63,4.23,1.29,5.73-0.97
		c0.89-1.34,1.44-2.84,1.97-4.35c2.91-8.41,5.81-16.83,8.74-25.23c0.3-0.87,0.29-1.47-0.33-2.26c-1.45-1.84-1.24-3.89-0.23-5.86
		c1.05-2.06,2.69-3.36,5.06-3.51c0.78-0.05,1.47,0.35,2.13,0.73c1.37,0.8,2.76,0.82,4.1,0.01c3.03-1.83,6.41,0.12,7.7,2.6
		c0.9,1.73,1.32,3.59,1.52,5.51c0.05,0.47,0.02,0.91-0.53,1.06c-1.09,0.31-0.97,1.08-0.77,1.91c1.18,4.89,2.34,9.78,3.52,14.67
		c1.19,4.93,2.4,9.85,3.58,14.77c0.15,0.62,0.42,1.04,1.02,1.35c1.75,0.92,2.48,2.49,2.07,4.4c-0.47,2.24-1.79,3.9-3.75,5.02
		c-1.66,0.94-3.36,0.96-5.01-0.05c-0.52-0.32-0.95-0.42-1.55-0.13c-4.5,2.13-8.21-0.6-9.77-3.81c-0.56-1.16-0.92-2.37-1.03-3.67
		c-0.06-0.65,0.15-1.06,0.78-1.29c0.56-0.2,1.13-0.42,1.64-0.72c1.04-0.62,1.19-1.55,0.49-2.53c-1.57-2.21-5.87-3.24-8.28-1.98
		c-1.47,0.77-2.38,3.04-1.85,4.56c0.14,0.39,0.45,0.54,0.76,0.71c0.71,0.37,1.45,0.69,2.12,1.11c1.04,0.66,1.39,1.6,1.08,2.79
		c-0.58,2.24-1.94,3.91-3.9,5.09c-1.01,0.61-2.11,0.72-3.23,0.3c-1.4-0.53-2.8-0.63-4.19,0.04c-1.72,0.83-3.17,0.27-4.52-0.86
		c-0.88-0.74-1.62-1.64-2.63-2.24c-0.68,0.29-0.82,1-1.29,1.43c-2.01,1.89-5.45,2.37-7.91,0.97c-0.64-0.36-1.12-0.39-1.77-0.1
		c-1.01,0.46-2.03,0.92-3.17,1.03c-0.79,0.08-1.25-0.18-1.6-0.9c-1.43-2.95-2.06-6.12-2.53-9.32c-0.41-2.8-0.65-5.63-1.01-8.44
		c-0.14-1.11-0.41-2.19-0.89-3.22c-0.43-0.94-1.22-1.16-2.16-1.19c-0.95-0.04-1.62,0.36-2.04,1.18c-0.44,0.87-0.64,1.81-0.69,2.77
		c-0.14,2.72,0.08,5.43,0.29,8.13c0.04,0.56,0.31,0.81,0.81,1.03c2.17,0.99,2.9,2.59,2.23,4.88c-0.58,1.96-1.78,3.47-3.56,4.49
		c-1.62,0.93-3.27,0.99-4.86-0.07c-0.56-0.37-1.02-0.4-1.65-0.16c-5.93,2.2-11.55-2.49-10.64-8.83c2.32-0.58,2.96-1.29,3.35-3.71
		c0.34-2.11,0.15-4.23,0.15-6.34c0-6.87,0.16-13.74-0.21-20.6c-0.02-0.45,0.08-0.89-0.45-1.26c-2.6-1.81-3.21-3.72-2.27-6.82
		c-0.26,1.51,0.3,2.52,1.76,3.09c1.15,0.45,1.65,1.38,1.84,2.59c0.3,1.87,0.28,3.74,0.21,5.62c-0.18,5.02-0.54,10.04-0.22,15.08
		c0.17,2.74,0.37,5.49,0.08,8.25c-0.22,2.05-0.87,3.72-3,4.46c-0.75,0.26-0.98,0.85-0.88,1.63c0.23,1.91,1.15,3.28,3.01,3.94
		c1.49,0.53,3.07,0.67,4.43-0.08c1.35-0.75,2.46-0.57,3.64,0.15c0.07,0.04,0.15,0.06,0.22,0.08c3.26,1.21,5.6-0.05,6.39-3.44
		c0.34-1.48,0.21-1.81-1.24-2.36c-1.08-0.41-1.68-1.17-2.01-2.21c-0.39-1.24-0.35-2.52-0.31-3.8c0.09-2.95,0.72-5.87,0.45-8.84
		c-0.04-0.44,0.14-0.66,0.51-0.83c3.21-1.46,5.76-1.01,7.18,2.57c0.18,0.44,0.32,0.9,0.45,1.36c0.76,2.75,0.95,5.58,1.26,8.39
		c0.3,2.77,0.45,5.58,1.57,8.2c0.72,1.68,1.32,1.98,2.96,1.22c1.54-0.72,2.98-0.7,4.51-0.11c3.48,1.34,6.11-0.71,6.63-4.18
		c0.16-1.07-0.06-1.79-1.1-2.19c-1.99-0.77-2.89-2.4-3.45-4.31c-0.59-2-0.81-4.07-1.23-6.1c-0.5-2.42-0.93-4.86-2.76-6.77
		c-2.16-2.24-2.22-1.97-0.05-4.34c2.77-3.03,3.63-6.65,2.86-10.56c-0.97-4.95-4.23-8.08-8.88-9.66c-4.87-1.65-9.63-0.79-14.19,1.35
		c-0.95,0.45-1.6,0.37-2.34-0.3c-1.75-1.58-3.69-1.44-5.69-0.53C1173.16,346.58,1172.53,347.26,1171.88,347.9z M1235.94,347.02
		c-0.49-0.31-0.92-0.59-1.36-0.86c-2.5-1.56-5.93-0.74-7.44,1.78c-0.75,1.25-0.73,2.39,0.33,3.08c1.48,0.95,1.6,2.14,1.06,3.61
		c-0.21,0.56-0.35,1.15-0.59,1.7c-2.26,5.29-4,10.77-5.91,16.19c-1.42,4.03-2.79,8.07-4.25,12.08c-0.62,1.69-1.69,3.08-3.37,3.88
		c-0.31,0.15-0.5,0.33-0.54,0.71c-0.26,2.75,2.15,5.68,5.09,4.49c1.24-0.5,2.47-0.43,3.75-0.07c2.57,0.72,3.86,0.26,5.51-1.9
		c1.09-1.42,1.63-2.95-0.78-3.99c-0.36-0.16-0.7-0.39-1.02-0.62c-0.58-0.41-0.9-0.98-0.98-1.71c-0.32-2.7,2.04-5.67,4.73-5.54
		c3.5,0.17,6.35,1.81,8.25,4.82c0.79,1.26,0.45,2.36-0.79,3.19c-0.36,0.24-0.76,0.47-1.17,0.59c-0.62,0.18-0.79,0.55-0.76,1.15
		c0.06,1.69,0.89,2.9,2.33,3.64c2.34,1.21,4.62,0.96,6.79-0.63c0.87,0.91,1.86,1.53,3.15,1.51c2.17-0.02,3.86-0.95,5.08-2.69
		c1.16-1.65,0.74-3.18-1.09-4c-0.62-0.28-0.93-0.66-1.12-1.27c-0.76-2.56-1.59-5.1-2.33-7.67c-2.13-7.44-3.48-15.08-5.73-22.49
		c-0.25-0.84-0.34-1.72-0.31-2.61c0.03-0.8,0.36-1.32,1.1-1.69c1.53-0.75,1.72-1.18,1.32-2.84c-0.41-1.72-1.57-2.75-3.24-3.19
		C1239.58,345.13,1237.69,345.57,1235.94,347.02z"/>
	<path class="st1" d="M1067.13,319.98c0.16,2.08-0.46,4.27-1.26,6.41c-0.9,2.44-1.91,4.83-3.37,7c-1.08,1.62-1.47,1.69-3.24,0.89
		c-2.16-0.98-4.28-2-5.69-4.03c-0.02-0.03-0.05-0.06-0.07-0.1c-1.41-2.02-1.4-2.27,0.36-3.91c1.71-1.58,3.34-3.21,4.25-5.42
		c1.41-3.44,0.1-7.46-3.19-9.2c-2.15-1.14-4.45-1.11-6.48,0.32c-2.23,1.57-2.96,3.89-2.62,6.54c0.13,0.98,0.48,1.93,0.69,2.91
		c0.09,0.38,0.14,0.79,0.12,1.18c-0.04,0.62-0.3,1.2-0.89,1.46c-0.53,0.23-0.87-0.26-1.24-0.53c-0.77-0.58-1.34-1.37-2.14-1.91
		c-0.73-0.5-1.23-0.49-1.5,0.46c-0.22,0.77-0.46,1.53-0.74,2.28c-0.55,1.47-1.37,1.86-2.78,1.24c-1.87-0.81-3.63-1.85-5.33-2.97
		c-1.8-1.19-2.31-2.86-1.95-4.89c0.49-2.83,1.53-5.47,3.15-7.83c2.54-3.68,5.7-6.7,9.95-8.35c7.71-3,16.92,0.54,21.31,8.13
		C1066.19,312.67,1067.1,316.1,1067.13,319.98z"/>
	<path class="st1" d="M1329.82,369.5c-0.01,5.1-0.93,10-3.38,14.53c-2.12,3.91-5.11,6.82-9.59,7.89c-6.18,1.48-12.19-1.1-15.57-6.74
		c-3.29-5.47-4.21-11.47-3.76-17.74c0.29-3.93,1.15-7.76,3.04-11.24c3.1-5.68,7.83-8.98,14.44-9.06c4.14-0.05,7.31,2.03,9.78,5.21
		c2.74,3.53,4.02,7.66,4.69,12.02C1329.74,366.07,1329.82,367.78,1329.82,369.5z M1323.83,368.62c0.04-2.36-0.11-4.71-0.49-7.04
		c-0.53-3.25-1.28-6.43-3.28-9.15c-2.34-3.2-6.5-3.89-9.79-1.66c-2.18,1.48-3.43,3.67-4.32,6.04c-2.87,7.64-3.28,15.47-1.61,23.43
		c0.61,2.87,1.91,5.4,4.09,7.43c2.94,2.74,7.44,2.66,10.26-0.19c1.38-1.39,2.3-3.06,2.97-4.87
		C1323.34,378.1,1323.81,373.39,1323.83,368.62z"/>
	<path class="st1" d="M1082.25,387.68c0.11-6.32-2.86-11.04-7.07-15.18c-5.58-5.49-10.92-11.21-16.34-16.86
		c-1.32-1.38-2.81-2.6-4.17-3.95c-1.01-1-1.67-2.21-1.7-3.73c1.2-0.46,2.06,0.12,2.86,0.81c2.48,2.14,4.78,4.47,7.06,6.82
		c5.34,5.5,10.36,11.3,15.74,16.76c1.6,1.62,3.27,3.18,5.25,4.33c7.28,4.24,16.69,3.44,21.99-5.87c0.37-0.65,0.72-1.31,1.14-2.07
		c2.57,2.69,4.09,5.73,4.43,9.31c0.52,5.46-2.18,9.14-6.65,11.75c-4.99,2.91-9.88,2.72-14.57-0.75c-1.6-1.19-3.19-2.4-4.74-3.65
		c-0.78-0.63-1.23-0.46-1.66,0.37C1083.47,386.44,1083.33,387.3,1082.25,387.68z"/>
	<path class="st1" d="M1350.48,375.41c-0.44,3.08-0.48,6.1-0.41,9.12c0.01,0.36,0.06,0.72,0.04,1.08c-0.05,0.8,0.3,1.16,1.1,1.41
		c2.64,0.81,3.55,2.86,2.39,5.34c-1.19,2.55-3.17,4.15-5.98,4.66c-0.83,0.15-1.62,0.04-2.34-0.26c-0.9-0.38-1.71-0.38-2.64-0.09
		c-2.14,0.66-4.07-0.07-5.45-1.98c-1.29-1.79-1.87-3.86-2.14-6.03c-0.08-0.64,0.15-0.99,0.76-1.13c0.16-0.04,0.31-0.08,0.46-0.12
		c2.55-0.63,3.21-1.34,3.6-3.94c0.39-2.54,0.39-5.1,0.32-7.65c-0.16-5.55-0.08-11.1-0.06-16.65c0-1.48-0.13-2.95-0.24-4.42
		c-0.08-1.12-0.55-1.88-1.57-2.33c-0.91-0.4-1.81-0.82-2.7-1.22c0.19-2.81,2.41-5.56,5-6.3c0.71-0.2,1.44-0.28,2.13-0.06
		c2.33,0.76,4.62,0.62,6.95,0.01c1.79-0.46,2.93,0.01,3.78,1.3c0.58,0.87,0.86,1.65,0.17,2.71c-0.84,1.29-0.62,2.78,0.04,4.13
		c0.38,0.79,0.84,1.55,1.37,2.24c1.45,1.91,2.73,3.94,4.07,5.92c0.55,0.81,1.12,1.64,2.25,2.09c0.5-1.13,0.45-2.28,0.51-3.4
		c0.07-1.27-0.17-2.55,0.02-3.83c0.09-0.61-0.34-0.82-0.75-1.08c-1.43-0.92-2.63-2.08-3.48-3.57c-0.2-0.35-0.42-0.69-0.28-1.12
		c0.42-1.34,0.89-2.65,1.79-3.76c0.92-1.13,2.11-1.7,3.57-1.57c2.23,0.19,4.41,0.28,6.66-0.11c1.92-0.34,3.58,0.69,4.8,2.2
		c1.48,1.84,2.04,4.03,2.13,6.36c0.02,0.55-0.21,0.84-0.7,0.93c-2.77,0.53-3.47,2.53-3.72,4.99c-0.38,3.68-0.16,7.34,0.05,11.01
		c0.29,5.03,0.21,10.06,0.24,15.09c0.01,1.03,0.25,1.63,1.31,2.06c2.8,1.16,3.32,3.28,1.56,5.77c-2.31,3.27-6.66,4.67-10.39,3.29
		c-0.46-0.17-0.83-0.11-1.25,0.06c-1.82,0.72-2.97,0.46-4.29-0.98c-0.35-0.38-0.63-0.83-0.94-1.24c-0.57-0.73-0.78-1.46-0.15-2.27
		c0.19-0.25,0.28-0.57,0.41-0.86c0.85-1.91,0.97-3.69-0.15-5.66c-1.91-3.34-3.87-6.62-6.6-9.36
		C1351.39,375.89,1351.15,375.49,1350.48,375.41z M1347.55,369.29c0.73,0.29,1.08,0.73,1.41,1.17c3.16,4.27,5.94,8.79,9.08,13.08
		c2.06,2.8,2.5,5.9,0.76,9.12c-0.45,0.83-0.24,1.12,0.75,1.21c1.22,0.12,2.41-0.03,3.51-0.56c0.71-0.34,1.29-0.31,2.02-0.01
		c3.07,1.29,6.82,0.14,8.36-2.47c0.95-1.62,0.85-2.01-0.82-2.73c-1.68-0.72-2.93-1.79-3.21-3.7c-0.11-0.79-0.18-1.59-0.22-2.38
		c-0.14-3.11,0.09-6.22,0.14-9.34c0.08-5.19,0.02-10.38,0.05-15.57c0.02-2.7,0.64-5.1,3.59-6.11c0.04-0.01,0.07-0.04,0.11-0.05
		c0.68-0.37,0.92-0.87,0.75-1.68c-0.58-2.69-3.2-4.32-6.08-3.53c-0.99,0.27-1.84,0.21-2.78,0.01c-2.72-0.59-5.32,0.54-6.34,2.68
		c-0.76,1.59-0.55,2.32,1.1,2.84c1.88,0.59,2.66,1.88,2.91,3.68c0.12,0.87,0.22,1.74,0.21,2.62c-0.04,4.03-0.77,8.03-0.74,12.06
		c0,0.05-0.1,0.09-0.21,0.19c-1.09-1.01-1.89-2.24-2.65-3.5c-1.49-2.46-2.94-4.94-4.81-7.15c-1.11-1.31-2.21-2.63-3.12-4.09
		c-1.33-2.12-1.54-4.31-0.51-6.62c0.28-0.62,0.45-1.28,0.7-1.91c0.25-0.63-0.02-0.9-0.62-0.96c-1.13-0.11-2.25-0.09-3.3,0.35
		c-0.78,0.33-1.47,0.31-2.29,0.02c-3.04-1.06-6.42-0.16-8.05,2.06c-1.37,1.86-1.18,2.75,0.96,3.67c1.74,0.74,2.49,1.9,2.41,3.8
		c-0.25,5.91-0.1,11.81,0.14,17.72c0.14,3.62,0.23,7.26-0.3,10.88c-0.26,1.74-1.03,2.98-2.69,3.64c-0.22,0.09-0.42,0.24-0.64,0.32
		c-0.95,0.36-1.06,1.07-0.86,1.94c0.61,2.61,3.52,4.29,6.18,3.41c1-0.33,1.83-0.31,2.83-0.01c2.61,0.79,5.23-0.42,6.21-2.72
		c0.69-1.63,0.61-1.94-1.01-2.61c-2.05-0.85-3.02-2.38-3.11-4.54C1347.11,378.83,1347.64,374.14,1347.55,369.29z"/>
	<path class="st1" d="M1354.22,313.04c-0.25-2.42-0.07-4.55,0-6.69c0.15-4.23,0.64-8.44,0.52-12.68c-0.02-0.84-0.1-1.67-0.16-2.51
		c-0.15-2.08-0.91-3.76-2.7-4.95c-0.47-0.31-1.28-0.67-0.85-1.48c0.43-0.81,1.34-0.95,1.99-0.55c1.69,1.06,3.19,1.17,4.96,0.06
		c0.97-0.61,1.7-0.06,2.2,1.15c-3.25,1.94-3.46,5.26-3.55,8.5c-0.14,5.35,0.05,10.7-0.21,16.05c-0.16,3.31-0.18,6.62,0.05,9.94
		c0.17,2.41,1.18,4.36,3.01,5.91c0.24,0.2,0.44,0.45,0.66,0.7c-0.42,0.83-1.1,1.14-1.94,1.22c-1.11,0.1-2.19-0.09-3.12-0.65
		c-1.22-0.72-2.28-0.93-3.2,0.31c-0.45-0.23-0.28-0.55-0.25-0.79c0.33-2.8-0.33-5.39-1.67-7.83c-0.1-0.18-0.17-0.37-0.28-0.53
		c-4.39-6.08-8.5-12.36-13-18.37c-0.32-0.43-0.65-0.91-1.38-1.16c-0.09,0.69-0.23,1.34-0.26,1.99c-0.32,6.66-0.68,13.32-0.26,19.98
		c0.13,2.05,0.5,3.98,2.69,4.95c0.44,0.2,1.02,0.55,0.8,1.17c-0.2,0.56-0.78,0.79-1.37,0.82c-0.88,0.05-1.63-0.33-2.35-0.79
		c-0.3-0.19-0.56-0.43-0.86-0.66c-1.39,0.72-2.62,2.2-4.38,1.01c-0.01-0.68,0.3-1.14,0.65-1.49c2.49-2.51,2.9-5.68,2.92-8.97
		c0.04-5.03,0.05-10.06-0.1-15.09c-0.08-2.59,0.08-5.19,0.1-7.78c0.01-1.4-0.12-2.79-0.37-4.17c-0.27-1.53-0.94-2.78-2.4-3.51
		c-0.42-0.21-0.97-0.47-0.87-1.02c0.1-0.53,0.61-0.83,1.12-0.99c1.49-0.47,2.89-0.06,4.13,0.69c0.92,0.57,1.61,0.75,2.37-0.13
		c0.15-0.18,0.4-0.26,0.66-0.2c0.22,0.25,0.1,0.53,0.05,0.79c-0.5,2.48-0.06,4.82,1.35,6.87c4.1,5.95,7.95,12.07,12.22,17.91
		C1351.92,311.15,1352.78,312.18,1354.22,313.04z"/>
	<path class="st1" d="M1179.21,326.72c-0.45,1.01-1.18,1.03-1.98,0.88c-0.12-0.02-0.24-0.06-0.33-0.13
		c-1.42-1.08-2.76-0.98-4.33-0.11c-1.28,0.71-2.05,0.28-2.65-1c3.84-2.16,3.72-5.98,3.87-9.64c0.14-3.35,0.13-6.7-0.07-10.06
		c-0.24-4.07-0.02-8.14-0.08-12.22c-0.02-1.2-0.13-2.4-0.32-3.57c-0.43-2.66-1.19-3.87-3.42-5.63c0.59-1.13,1.33-1.52,2.48-1.24
		c0.54,0.13,1.07,0.32,1.58,0.55c1.42,0.62,2.83,1.37,4.19-0.26c0.31,0.57,0.19,0.97,0.13,1.32c-0.5,2.62,0.21,4.98,1.5,7.22
		c1.02,1.77,2.26,3.39,3.54,4.97c3.24,4.02,6.24,8.19,8.88,12.63c0.66,1.12,1.42,2.19,3,2.51c0-1.68-0.01-3.19,0-4.7
		c0.03-5.15,0.53-10.29,0.26-15.44c-0.06-1.16-0.2-2.31-0.51-3.43c-0.47-1.69-1.27-2.66-3.33-4.15c0.18-0.88,0.78-1.2,1.63-1.18
		c0.83,0.02,1.59,0.32,2.22,0.81c0.66,0.51,1.17,0.63,1.87,0.02c0.56-0.49,1.29-0.79,2.09-0.8c0.79-0.01,1.4,0.24,1.64,1.17
		c-2.93,2.02-3.56,5.13-3.72,8.39c-0.22,4.55-0.12,9.1,0.14,13.65c0.23,3.99-0.02,7.98-0.2,11.97c-0.12,2.61,0.66,4.79,2.85,6.36
		c0.38,0.27,0.76,0.59,0.9,1.13c-0.61,0.88-1.5,1.09-2.5,1.01c-0.93-0.08-1.82-0.37-2.6-0.85c-0.93-0.58-1.76-0.68-2.6,0.11
		c-0.16,0.15-0.39,0.29-0.65,0.24c-0.03-0.07-0.1-0.15-0.09-0.2c0.88-3.13,0.01-5.85-1.8-8.45c-4.01-5.77-7.93-11.6-11.9-17.4
		c-0.36-0.53-0.76-1.03-1.19-1.5c-0.49-0.53-1.09-0.77-1.83-0.54c-0.04,0.14-0.12,0.26-0.11,0.37c0.43,5.51-0.38,11.01-0.25,16.51
		c0.05,2.16,0.25,4.3,0.91,6.38C1176.95,324.09,1177.82,325.55,1179.21,326.72z"/>
	<path class="st1" d="M1074.36,326.42c0.75-0.2,1.43-0.38,2.12-0.56c1.47-0.37,2.2-1.35,2.36-2.81c0.17-1.55,0.06-3.11,0.05-4.67
		c-0.03-6.19-0.01-12.38-0.05-18.57c-0.02-3.59-0.15-7.18-0.19-10.77c-0.01-0.69-0.25-1.13-0.83-1.45c-0.28-0.15-0.53-0.36-0.8-0.53
		c-2.34-1.48-3.25-3.61-2.61-6.26c0.7-2.95,2.19-5.31,5.37-6.14c1.37-0.36,2.67-0.01,3.75,0.79c1.78,1.31,3.66,1.49,5.52,0.5
		c9.08-4.82,20.2-0.5,26.11,7.38c4.15,5.54,6.51,11.78,7.45,18.57c1.09,7.92,0.29,15.63-3.15,22.92
		c-2.74,5.82-6.82,10.42-12.95,12.84c-4.93,1.95-9.9,2-14.83-0.07c-2-0.84-3.78-0.92-5.77,0.29c-2.42,1.46-6.47,0.2-8.38-2.27
		C1075.47,332.92,1074.78,329.76,1074.36,326.42z M1119.18,306.52c0-8.21-1.31-14.25-4.05-19.67c-2.28-4.5-5.44-8.21-10.14-10.28
		c-5.41-2.39-10.89-2.37-16.21,0.28c-1.76,0.88-3.16,0.9-4.67-0.36c-0.79-0.66-1.77-1.07-2.86-1.1c-3.05-0.11-5.6,2.26-6.08,5.62
		c-0.11,0.74,0.08,1.25,0.71,1.6c0.7,0.39,1.41,0.74,2.11,1.13c0.75,0.41,1.16,0.97,1.17,1.91c0.08,4.95,0.25,9.89,0.35,14.84
		c0.12,6.27-0.12,12.54,0.22,18.8c0.08,1.48-0.02,2.95-0.22,4.42c-0.2,1.51-0.95,2.56-2.39,3.17c-2.11,0.89-2.24,1.22-1.58,3.41
		c0.33,1.1,0.94,2.01,1.87,2.71c2.22,1.68,5.69,1.69,7.92-0.13c0.77-0.63,1.3-0.59,2.1-0.18c4.03,2.1,8.33,2.73,12.79,2.08
		c6.32-0.91,10.77-4.58,13.96-9.9C1117.85,318.76,1119.09,312.03,1119.18,306.52z"/>
	<path class="st1" d="M1122.19,390.26c0.54-0.07,1.02-0.1,1.49-0.2c1.46-0.3,2.23-1.36,2.46-3.28c0.34-2.94,0.33-5.9,0.36-8.85
		c0.09-8.19,0.07-16.37,0.13-24.56c0.01-0.76-0.18-1.3-0.87-1.67c-0.39-0.2-0.73-0.49-1.08-0.75c-2.68-1.94-3.34-4.15-2.12-7.23
		c0.94-2.37,2.51-4.16,4.99-5c1.33-0.45,2.65-0.41,3.76,0.49c1.84,1.5,3.53,1.39,5.59,0.25c2.41-1.33,5.18-1.56,7.93-1.49
		c9.87,0.27,17.15,4.77,21.32,13.71c5.58,11.94,6.15,24.16,0.92,36.41c-2.1,4.9-5.14,9.21-9.95,11.77
		c-6.4,3.42-13.1,3.76-19.89,1.03c-0.57-0.23-1.04-0.38-1.68-0.07c-4.83,2.29-9.51,0.71-12.08-4.03
		C1122.4,394.86,1121.88,392.26,1122.19,390.26z M1166.7,368.17c0.03-1.84-0.04-3.67-0.24-5.5c-0.65-5.91-2.44-11.39-6.11-16.14
		c-4.03-5.22-9.24-8.08-15.99-7.88c-3.12,0.09-5.95,1.07-8.71,2.39c-0.93,0.45-1.6,0.51-2.57-0.16c-3.23-2.23-9.05-1.63-9.93,3.52
		c-0.3,1.72-0.22,2.01,1.47,2.49c1.37,0.4,2.16,1.26,2.45,2.65c0.32,1.53,0.48,3.08,0.44,4.64c-0.2,7.35-0.16,14.7-0.23,22.04
		c-0.03,3.51-0.13,7.03-0.24,10.54c-0.08,2.46-0.62,3.22-2.71,3.97c-1.56,0.57-1.57,0.58-1.34,2.25c0.67,4.81,5.32,6.76,9.15,3.84
		c1.46-1.11,2.08-1.17,3.69-0.2c1.23,0.75,2.45,1.48,3.89,1.8c3.3,0.73,6.59,0.71,9.85-0.15c5.37-1.42,9.2-4.85,12.01-9.48
		C1165.4,382.47,1166.73,375.48,1166.7,368.17z"/>
	<path class="st1" d="M1277.05,327.85c-0.9,0.08-1.71-0.31-2.57-0.43c-1.91-0.25-3.82-0.31-5.74-0.33
		c-4.15-0.04-8.32,0.24-12.38-0.91c-0.49-0.14-0.73,0.17-1.03,0.43c-0.84,0.71-1.8,1.18-2.89,1.35c-1.13,0.18-1.83-0.23-2.36-1.38
		c2.49-2,2.78-4.89,2.95-7.78c0.24-4.23-0.14-8.46-0.14-12.69c-0.01-4.11,0.21-8.22,0.2-12.33c-0.01-3.11-0.52-5.96-2.93-8.17
		c-0.23-0.21-0.43-0.48-0.47-0.9c0.63-0.73,1.44-0.98,2.41-0.67c0.15,0.05,0.34,0.06,0.45,0.16c1.83,1.59,3.83,1.27,6,0.78
		c2.22-0.5,4.54-0.16,6.82-0.17c3.18-0.01,6.4,0.33,9.52-0.92c0.43,0.82,0.09,1.49-0.18,2.12c-0.3,0.69-0.19,1.2,0.39,1.69
		c0.76,0.65,1.47,1.35,2.03,2.19c0.85,1.29,1.04,2.65,0.45,4.1c-0.39,0.96-1.04,1.62-2.11,1.7c-1.12,0.08-1.93-0.48-2.44-1.42
		c-0.82-1.5-0.74-3.04,0.17-4.44c0.55-0.85,0.39-1.31-0.36-1.85c-0.9-0.65-1.87-1.07-2.96-1.21c-2.7-0.34-5.41-0.51-8.12-0.13
		c-2.25,0.32-2.97,1.01-3,3.25c-0.05,3.67-0.04,7.35,0.02,11.02c0.04,2.29,0.76,2.99,3.06,3.37c1.68,0.28,3.34,0.18,5.01-0.05
		c1.02-0.14,1.69-1,2.77-1.26c-0.09,1.37-0.53,2.63-0.07,3.86c-0.52,0.36-0.91,0-1.3-0.1c-2.29-0.56-4.57-1.14-6.97-0.71
		c-1.44,0.26-2.27,1.07-2.56,2.48c-0.53,2.55-0.11,5.09,0.14,7.63c0.23,2.34,0.73,4.66,0.46,7.03c-0.07,0.59,0.3,0.76,0.73,0.93
		c1.2,0.48,2.45,0.72,3.72,0.85c2.86,0.3,5.73,0.45,8.59-0.09c0.59-0.11,1.15-0.33,1.67-0.63c1.6-0.91,1.8-1.52,0.98-3.15
		c-0.4-0.8-0.7-1.6-0.63-2.52c0.16-1.89,1.75-2.89,3.51-2.19c2.42,0.96,3,4.33,1.04,6.19c-0.55,0.52-1.14,1-1.7,1.5
		c-0.54,0.48-0.69,1-0.31,1.69C1277.24,326.37,1277.37,327.08,1277.05,327.85z"/>
	<path class="st1" d="M1327.38,287.84c-0.56,0.11-0.98-0.28-1.48-0.4c-0.5-0.13-0.53-0.46-0.48-0.92c0.4-4.1,4.82-6.84,8.56-5.25
		c1.16,0.49,2.19,0.46,3.33-0.05c2.23-1,4.93-0.19,6.03,1.68c0.33,0.56,0.41,1.05,0.04,1.66c-0.97,1.6-1.01,3.33-0.1,4.92
		c1.82,3.19,3.98,6.16,6.22,9.07c0.36,0.47,0.81,0.89,1.43,0.94c0.35-0.18,0.35-0.49,0.37-0.75c0.17-2.27,0.31-4.54,0.15-6.82
		c-0.04-0.62-0.39-0.92-0.87-1.17c-1.06-0.57-2.06-1.22-2.84-2.17c-0.73-0.89-0.98-1.89-0.69-3.02c0.79-3.03,3.68-4.91,6.73-4.31
		c1.4,0.28,2.77,0.25,4.16-0.06c2.4-0.53,4.23,0.47,5.65,2.28c1.41,1.79,1.86,3.94,2.05,6.16c0.05,0.53-0.13,0.83-0.62,0.99
		c-0.3,0.09-0.6,0.22-0.9,0.32c-1.64,0.5-2.46,1.63-2.7,3.31c-0.27,1.91-0.33,3.83-0.19,5.74c0.55,7.26,0.38,14.53,0.37,21.8
		c0,0.92,0.2,1.49,1.06,1.89c0.9,0.42,1.72,1.01,2.37,1.8c0.65,0.79,0.8,1.65,0.35,2.57c-2.21,4.5-7.09,6.32-10.65,4.75
		c-0.89-0.39-1.79-0.19-2.69,0.11c-1.63,0.55-2.39,0.3-3.4-1.09c-0.19-0.26-0.33-0.55-0.53-0.79c-0.72-0.88-0.81-1.69-0.26-2.8
		c0.99-1.97,0.92-4.12,0.24-6.19c-1.41-4.27-4.75-7.18-7.47-10.73c-0.67,1.15-0.7,2.23-0.78,3.27c-0.19,2.47-0.08,4.95-0.02,7.42
		c0.02,0.88,0.31,1.31,1.27,1.51c1.98,0.4,2.92,1.93,2.61,3.91c-0.57,3.72-3.89,6.31-7.61,5.94c-2.14-0.21-4.26-0.73-6.43-0.24
		c-0.48,0.11-0.82-0.26-1.17-0.52c-1.45-1.07-2.21-2.61-2.76-4.25c-0.37-1.1-0.58-2.24-0.9-3.35c-0.18-0.63-0.01-1,0.65-1.14
		c0.16-0.03,0.3-0.1,0.46-0.14c3.16-0.94,3.68-1.6,3.89-4.88c0.01-0.24,0.03-0.48,0.05-0.76c1.01,2.59-0.18,5.18-2.73,6.03
		c-1.57,0.52-1.8,1.03-1.21,2.6c0.93,2.44,3.81,3.87,6.29,3c0.88-0.31,1.59-0.35,2.48-0.02c2.48,0.91,5.59-0.46,6.57-2.78
		c0.69-1.63,0.24-2.57-1.51-2.83c-1.55-0.23-2.1-1.32-2.47-2.58c-0.46-1.59-0.38-3.24-0.33-4.88c0.11-3.58,0.75-7.14,0.47-10.73
		c0.52-0.11,0.67,0.24,0.85,0.46c0.49,0.58,0.98,1.16,1.38,1.81c2.29,3.71,4.74,7.29,7.54,10.65c0.79,0.95,1.45,2.01,1.87,3.19
		c0.81,2.31,0.31,4.47-0.79,6.57c-0.59,1.12-0.34,1.49,0.93,1.56c1.14,0.07,2.24-0.11,3.26-0.62c0.62-0.31,1.16-0.24,1.81-0.04
		c2.84,0.86,5.53,0.74,7.79-1.49c0.23-0.22,0.43-0.48,0.59-0.75c1.08-1.71,0.99-2.25-0.84-3.08c-2.26-1.03-2.96-2.86-3-5.14
		c-0.06-3.4,0.1-6.79,0.14-10.18c0.04-4.31-0.07-8.62-0.14-12.94c-0.03-1.52,0.15-3.03,0.27-4.54c0.17-2.06,1.37-3.38,3.23-4.07
		c0.98-0.37,1.18-0.88,0.84-1.81c-0.23-0.64-0.46-1.28-0.8-1.86c-1.01-1.71-2.59-2.4-4.49-1.81c-1.5,0.47-2.93,0.48-4.46,0.13
		c-2.83-0.64-4.84,0.69-5.56,3.51c-0.28,1.11-0.09,1.7,0.99,1.91c2.28,0.45,2.92,2.07,3.26,4.04c0.24,1.39,0.21,2.79,0.15,4.18
		c-0.13,3.34-0.67,6.65-0.74,10.1c-0.56-0.23-0.82-0.63-1.09-1c-2.99-4.2-5.84-8.49-8.9-12.63c-1.77-2.39-2.23-4.99-0.98-7.79
		c0.08-0.18,0.12-0.38,0.18-0.57c0.61-1.93,0.38-2.21-1.69-2.08c-0.08,0-0.17-0.01-0.24,0.02c-2.09,0.87-4.14,0.5-6.27,0.02
		c-2.39-0.53-4.39,0.37-5.83,2.42c-0.96,1.37-1.55,2.54,0.64,3.79L1327.38,287.84z"/>
	<path class="st1" d="M1133.46,285.74c0.99-0.92,1.93-1.71,3.19-2.02c0.57-0.14,1.11-0.15,1.63,0.12c0.96,0.49,1.11,1.16,0.36,1.94
		c-1.79,1.88-2.38,4.18-2.48,6.68c-0.32,7.75-0.11,15.49,0.25,23.23c0.08,1.71,0.47,3.39,1.1,5.01c1.63,4.21,5.06,5.96,9.48,5.02
		c3.89-0.82,5.06-3.08,5.78-7.23c0.36-2.06,0.36-4.15,0.21-6.21c-0.4-5.75-0.04-11.5,0.02-17.24c0.01-1.44-0.07-2.87-0.19-4.3
		c-0.16-1.86-0.88-3.36-2.29-4.57c-0.51-0.44-1.05-0.86-1.35-1.49c0.67-1.08,1.25-1.42,2.37-0.84c1.54,0.79,2.94,1.38,4.51,0.1
		c0.3-0.25,0.84-0.21,1.29-0.13c1.08,0.19,1.32,0.77,0.66,1.62c-0.12,0.16-0.23,0.33-0.39,0.46c-2.37,1.91-2.68,4.58-2.76,7.35
		c-0.2,6.59,0.21,13.17,0.21,19.76c0,2.92-0.09,5.82-0.81,8.68c-0.99,3.9-3.4,6.24-7.4,6.84c-3.52,0.52-6.93,0.12-10.19-1.35
		c-3.9-1.76-5.39-5.1-5.97-9.05c-0.58-3.98-0.25-7.97-0.24-11.96c0.01-4.67,0.01-9.35-0.01-14.02c-0.01-2.43-0.69-4.64-2.24-6.55
		c-0.27-0.33-0.85-0.64-0.48-1.21c0.35-0.54,0.87-0.79,1.54-0.75c0.92,0.05,1.67,0.5,2.42,0.97
		C1132.25,284.93,1132.81,285.31,1133.46,285.74z"/>
	<path class="st1" d="M1290.02,397.78c-1.08,0.17-1.86-0.11-2.56-0.61c-0.49-0.34-0.92-0.76-1.38-1.14c-1.55-1.3-2.65-1.47-4.36-0.4
		c-6.47,4.07-14.41,1.84-18.87-2.2c-4.46-4.04-6.93-9.1-7.97-14.93c-1.47-8.26-0.6-16.23,3.05-23.82c1.58-3.28,3.76-6.11,6.77-8.24
		c3.39-2.4,7.17-2.68,11.12-2.13c3.28,0.45,6.57,1.02,9.89,0.38c0.46-0.09,0.76,0.05,1.04,0.39c1.86,2.19,2.74,4.6,1.52,7.4
		c-0.62,1.42-0.23,2.72,0.24,4.06c1.24,3.52-0.54,7.17-4.06,8.39c-4.47,1.56-8.78-1.72-8.48-6.45c0.07-1.16,0.33-2.29,0.35-3.45
		c0.02-0.9-0.38-1.2-1.19-1.26c-1.19-0.09-2.19,0.27-3.06,1.08c-1.36,1.28-2.1,2.9-2.57,4.66c-1.31,4.91-1.6,9.92-1.32,14.97
		c0.14,2.51,0.44,5.01,1.14,7.44c0.28,0.96,0.59,1.91,1.05,2.8c0.73,1.42,1.53,1.84,3.08,1.64c1.34-0.18,2.03-0.85,2.36-2.33
		c0.4-1.78,0.18-3.58,0.21-5.37c0.01-0.53-0.4-0.76-0.73-1.03c-0.85-0.68-1.55-1.49-2.23-2.33c-0.6-0.75-0.73-1.54-0.51-2.46
		c0.29-1.25,0.63-2.47,1.36-3.55c1.49-2.19,4.13-2.91,6.39-1.55c1.4,0.84,2.65,0.81,4.07,0.13c2.65-1.27,4.82-0.65,6.53,1.81
		c1.24,1.79,1.79,3.81,1.89,5.97c0.01,0.31,0.09,0.67-0.25,0.87c-2.65,1.56-2.92,4.21-3.13,6.86c-0.27,3.56,0.08,7.1,0.39,10.64
		C1289.92,395.26,1289.95,396.52,1290.02,397.78z M1265.79,371.17c0.03-3.96,0.35-7.53,1.15-11.05c0.6-2.61,1.53-5.04,3.59-6.89
		c1.39-1.25,2.96-1.88,4.84-1.51c2.35,0.47,2.72,1.2,1.71,3.31c-1.15,2.39-0.32,5.25,1.92,6.61c2.36,1.43,5.39,0.87,6.95-1.33
		c1.46-2.07,1.77-4.37,0.95-6.73c-0.36-1.06-0.37-1.96,0.03-2.96c0.43-1.09,0.57-2.25,0.34-3.41c-0.15-0.77-0.44-1.5-1.48-1.35
		c-2.71,0.4-5.33-0.14-7.95-0.69c-3.04-0.64-6.09-0.87-9.11,0.12c-4.87,1.6-8,5.09-10.27,9.5c-2.16,4.19-3.17,8.68-3.45,13.35
		c-0.34,5.66,0.36,11.18,2.87,16.33c3.17,6.5,8.19,10.21,15.68,9.86c2.23-0.1,4.46-0.41,6.34-1.85c1.81-1.39,2.27-1.33,3.77,0.38
		c0.64,0.73,1.32,1.4,2.29,1.66c1.4,0.38,1.76,0.07,1.51-1.37c-0.81-4.75-0.79-9.54-0.59-14.33c0.09-2.19,0.42-4.25,3-5
		c0.81-0.24,1-0.9,0.87-1.73c-0.46-3.17-4.31-4.95-7.43-3.32c-0.9,0.47-1.52,0.46-2.39-0.05c-2.4-1.4-4.88-1.02-6.66,0.9
		c-1.42,1.52-1.28,3.19,0.48,4.26c1.39,0.84,1.96,2.04,1.99,3.58c0.01,0.64,0.03,1.28-0.03,1.92c-0.16,1.87-0.6,3.71-0.46,5.6
		c0.02,0.32-0.11,0.53-0.37,0.69c-2.31,1.48-5.04,2.01-7.13-0.98c-0.44-0.62-0.8-1.29-1.08-2
		C1266.14,378.88,1265.88,374.86,1265.79,371.17z"/>
	<path class="st1" d="M1243.08,333.81c-0.97,0.18-1.74-0.04-2.45-0.42c-0.6-0.32-1.2-0.66-1.71-1.1c-1.27-1.08-2.32-1.27-3.99-0.36
		c-7.92,4.31-18.72,0.84-23.28-7.29c-2.51-4.46-3.78-9.3-4.31-14.34c-0.67-6.45-0.13-12.76,2.39-18.8c1.79-4.28,4.48-7.81,8.78-9.89
		c3.59-1.73,7.32-1.73,11.13-1.04c1.93,0.35,3.85,0.74,5.82,0.62c0.56-0.03,1.17,0.02,1.65-0.2c1.24-0.58,1.84,0.09,2.39,1.02
		c1.35,2.27,1.86,4.67,0.99,7.22c-0.27,0.79-0.21,1.44,0.1,2.18c0.7,1.66,0.87,3.39,0.42,5.16c-0.65,2.58-2.15,4.43-4.86,4.84
		c-2.71,0.41-4.95-0.66-6.58-2.84c-1.02-1.36-1.45-2.91-1.1-4.63c0.2-0.98,0.33-1.96,0.32-2.97c-0.01-0.76-0.37-1.07-1.07-1.17
		c-1.24-0.18-2.28,0.2-3.18,1.04c-1.31,1.21-2.04,2.76-2.44,4.45c-1.75,7.53-2.05,15.08-0.36,22.67c0.23,1.05,0.6,2.07,1.11,3.03
		c0.61,1.16,1.49,1.78,2.88,1.72c1.64-0.08,2.46-0.67,2.81-2.34c0.4-1.9,0.22-3.82,0.17-5.73c-0.01-0.41-0.18-0.67-0.57-0.82
		c-3.17-1.17-3.71-5.23-1.36-8.34c1.75-2.33,4.42-3.53,7.35-1.15c0.47,0.38,0.8,0.31,1.27,0.05c3.32-1.83,6.22-1.11,8.38,2.06
		c1.01,1.48,1.56,3.13,1.72,4.91c0.06,0.7-0.1,1.29-0.78,1.58c-1.88,0.81-2.38,2.43-2.6,4.25c-0.38,3.12-0.11,6.22,0.16,9.32
		C1242.52,328.92,1242.82,331.33,1243.08,333.81z M1218.21,305.9c-0.06-0.83,0.12-2.46,0.29-4.09c0.36-3.46,0.92-6.89,2.5-10.05
		c0.93-1.87,2.35-3.18,4.37-3.85c1.41-0.47,2.66-0.14,3.88,0.6c0.7,0.43,0.9,0.96,0.55,1.71c-0.34,0.73-0.67,1.46-0.74,2.27
		c-0.33,3.75,1.78,6.78,6.32,5.57c3.84-1.02,5.63-4.75,4.05-8.5c-0.43-1.03-0.48-1.92-0.18-2.96c0.35-1.23,0.53-2.51,0.07-3.77
		c-0.23-0.65-0.52-1.3-1.41-1.18c-3.46,0.47-6.84-0.31-10.25-0.66c-4.54-0.46-8.77,0.11-12.29,3.38c-1.86,1.74-3.45,3.7-4.51,6
		c-4.57,9.86-4.74,19.83-0.44,29.8c1.67,3.87,4.31,7.06,8.24,8.85c5.05,2.3,10.07,2.21,14.88-0.8c1.25-0.78,1.49-0.75,2.51,0.39
		c0.56,0.63,1.06,1.3,1.72,1.83c0.68,0.55,1.48,0.73,2.23,0.29c0.66-0.39,0.45-1.12,0.37-1.75c-0.02-0.16-0.02-0.33-0.07-0.47
		c-0.67-1.95-0.74-3.99-0.84-6.02c-0.15-3.31-0.19-6.63,0.4-9.91c0.2-1.08,0.71-1.91,1.82-2.32c1.65-0.6,1.89-1.11,1.46-2.81
		c-0.3-1.2-1.01-2.07-2.12-2.6c-1.73-0.82-3.52-0.8-5.2,0.03c-0.83,0.41-1.39,0.35-2.18-0.06c-1.67-0.88-3.46-1.31-5.28-0.42
		c-1.46,0.71-2.09,2.02-2.3,3.56c-0.2,1.44,0.88,1.92,1.88,2.44c1.04,0.54,1.48,1.45,1.51,2.55c0.06,2.35,0.13,4.71-0.21,7.05
		c-0.45,3.05-3.1,4.28-5.79,2.71c-1.6-0.93-2.6-2.33-3.28-4C1218.62,314.85,1218.3,310.81,1218.21,305.9z"/>
	<path class="st1" d="M1403.29,365.43c1.13,1.06,2.31,2.07,3.39,3.18c2.31,2.37,4.24,5.01,5.35,8.15c2.02,5.69,0.83,10.7-3.15,15.2
		c-4.05,4.58-9.03,6.49-15.1,5.78c-2.81-0.33-5.62-0.85-8.47-0.44c-0.54,0.08-0.92-0.25-1.28-0.55c-2.23-1.84-3.57-4.17-3.69-7.1
		c-0.03-0.75-0.23-1.36-0.67-1.98c-1.37-1.87-2.22-3.98-2.38-6.31c-0.39-5.81,4.67-9.53,10.14-7.48c3.91,1.46,5.74,5.01,4.56,8.79
		c-0.28,0.9-0.95,1.57-1.32,2.4c-0.5,1.11-0.41,1.37,0.76,1.73c1.89,0.57,3.72,0.43,5.44-0.57c2.25-1.3,2.75-3.5,1.2-5.58
		c-1.68-2.27-3.93-3.94-6.14-5.66c-2.6-2.01-5.4-3.8-7.38-6.51c-2.89-3.97-4.53-8.35-3.94-13.33c0.8-6.73,7.15-11.74,13.94-11.01
		c2.62,0.28,5.21,0.74,7.82,1.13c1.52,0.23,3.04,0.19,4.51-0.22c0.64-0.18,1.03-0.03,1.44,0.47c1.53,1.92,2.41,3.93,1.34,6.41
		c-0.56,1.28-0.31,2.57,0.23,3.83c1.82,4.26,0.28,7.47-4.19,8.74c-0.72,0.21-1.46,0.36-2.19,0.53
		C1403.43,365.18,1403.36,365.3,1403.29,365.43z M1394.07,344.9c-0.96-0.05-1.99,0.04-3.01,0.24c-6.38,1.23-10.41,6.19-9.96,12.39
		c0.28,3.91,1.96,7.2,4.83,9.88c1.99,1.86,4.27,3.34,6.51,4.89c2.2,1.53,4.45,3.01,6.07,5.19c1.44,1.94,2.06,4.11,1.12,6.42
		c-1,2.49-3.15,3.54-5.66,3.84c-2.65,0.32-4.98-0.44-6.82-2.47c-0.39-0.43-0.24-0.8,0.07-1.16c0.49-0.58,1.02-1.13,1.49-1.72
		c1.77-2.21,0.97-5.94-1.51-7.28c-3.12-1.68-9.04-0.37-9.35,5.18c-0.15,2.77,0.99,5.04,2.45,7.22c0.51,0.76,0.77,1.49,0.7,2.44
		c-0.1,1.4,0.13,2.8,1.04,3.97c0.51,0.65,1.02,1.06,1.9,0.48c0.63-0.41,1.41-0.52,2.18-0.58c1.89-0.13,3.75,0.13,5.61,0.4
		c2.5,0.37,4.99,0.58,7.49-0.06c11.63-2.99,15.03-16.3,8.04-24.11c-1.88-2.11-4.09-3.79-6.35-5.45c-2.41-1.77-5.05-3.23-7.21-5.34
		c-0.87-0.85-1.6-1.78-1.92-2.98c-0.38-1.43,0.41-3.98,1.67-4.44c1.45-0.53,2.99-0.22,4.39,0.49c0.84,0.42,1.14,1.03,0.84,1.96
		c-0.22,0.68-0.4,1.38-0.51,2.09c-0.29,1.99,0.68,4.08,2.35,4.87c3.67,1.72,8.41-1.03,8.43-4.99c0.01-1.08-0.3-2.05-0.73-2.99
		c-0.4-0.88-0.46-1.72-0.19-2.65c0.33-1.15,0.44-2.35,0.23-3.55c-0.13-0.75-0.43-1.09-1.27-1.01c-2.12,0.19-4.22-0.02-6.32-0.38
		C1398.53,345.32,1396.38,344.81,1394.07,344.9z M1398.08,361.25c-0.17-1.91-0.79-3.5-0.73-5.18c0.01-0.29-0.27-0.48-0.52-0.61
		c-1.05-0.54-2.14-0.67-3.23-0.21c-0.7,0.3-1.06,0.8-0.72,1.62C1393.79,359.15,1395.51,360.47,1398.08,361.25z"/>
	<path class="st1" d="M1246.47,286.1c0.18,1.05,0.82,1.52,1.62,1.75c1.11,0.32,1.56,1.02,1.68,2.17c0.37,3.54,0.42,7.09,0.49,10.64
		c0.11,5.79-0.15,11.58,0.27,17.37c0.05,0.71-0.05,1.43-0.06,2.15c-0.04,1.89-0.83,3.29-2.62,4.06c-0.87,0.37-1.07,0.97-0.82,1.93
		c1.09,4.16,2.79,5.1,6.83,3.55c1.47-0.56,2.9-0.7,4.46-0.41c2.89,0.54,5.82,0.3,8.73,0.18c2.17-0.09,4.31,0.01,6.44,0.39
		c0.99,0.18,1.96,0.46,2.78,1.06c0.69,0.51,1.29,0.4,1.83-0.12c0.93-0.88,1.78-1.75,1.41-3.29c-0.36-1.5,0.38-2.81,1.32-3.95
		c1.4-1.71,1.98-3.62,1.55-5.81c-0.46-2.35-2.22-3.77-4.9-3.97c-2.46-0.18-4.86,1.26-5.57,3.33c-0.35,1.03-0.32,2.03,0.06,3.04
		c0.22,0.58,0.55,1.17,0.22,1.92c-3.12,0.59-6.27,0.78-9.45,0.04c-0.86-0.2-0.98-0.79-1.08-1.5c-0.36-2.47-0.2-4.94-0.23-7.42
		c-0.01-0.96,0.09-1.93-0.01-2.87c-0.11-1.03,0.38-1.43,1.25-1.67c2-0.54,3.87-0.53,5.44,1.08c0.58,0.6,1.14,1.3,2.15,0.82
		c1.23-0.57,2.2-1.83,1.92-2.9c-0.48-1.82-0.42-3.63-0.3-5.47c0.06-0.91-0.22-1.74-1.08-2.26c-0.67-0.41-1.21-0.52-1.91,0.11
		c-1.74,1.57-3.83,2.01-6.14,1.6c-0.94-0.17-1.21-0.73-1.31-1.56c-0.33-2.71-0.3-5.42-0.13-8.13c0.02-0.32,0.06-0.64,0.08-0.95
		c0.12-1.76,0.24-1.94,2-2.1c2.28-0.21,4.53,0.03,6.77,0.77c-0.39,1.34-0.73,2.62-0.4,3.95c0.57,2.27,2.05,3.71,4.26,4.27
		c2.08,0.53,3.98,0.08,5.38-1.7c1.28-1.62,1.32-3.46,0.86-5.35c-0.34-1.42-1-2.7-2.01-3.76c-0.48-0.5-0.68-0.97-0.61-1.69
		c0.12-1.2-0.01-2.4-0.52-3.52c-0.68-1.49-1.96-1.9-3.2-0.86c-1.53,1.28-3.26,1.56-5.14,1.58c-2.24,0.03-4.47-0.2-6.7-0.37
		c-2.04-0.16-4.08-0.25-6.07,0.31c-0.73,0.2-1.19-0.14-1.62-0.52c4.6-0.68,9.22,0,13.83-0.09c2.3-0.04,4.57-0.22,6.34-1.98
		c0.35-0.35,0.65-0.15,0.96,0.05c2.37,1.59,4.17,3.52,3.84,6.66c-0.06,0.62,0.38,0.92,0.71,1.31c1.93,2.25,2.76,4.84,2.24,7.78
		c-0.65,3.65-3.64,5.56-7.26,4.7c-0.69-0.16-1.35-0.52-2.18-0.35c-0.14,0.63,0.21,1.14,0.5,1.63c0.77,1.32,1.01,2.66,0.43,4.12
		c-0.38,0.97-0.23,1.95,0.1,2.92c0.69,2.02-0.01,3.7-1.41,5.12c-1.15,1.16-2.21,1.05-3.26-0.21c-0.41-0.49-0.76-1.03-1.17-1.52
		c-0.73-0.88-1.68-1.01-2.72-0.72c-0.44,0.12-0.77,0.37-0.88,0.87c-0.46,2.23-0.95,4.45-0.72,6.76c0.19,1.98,1.17,2.93,3.17,3.04
		c1.29,0.07,2.54-0.15,3.77-0.57c0.8-0.27,1.1-0.64,0.92-1.58c-0.57-2.98,0.6-5.31,3.04-6.34c2.77-1.18,6.25-0.04,7.69,2.61
		c1.3,2.37,1.54,4.92,0.95,7.55c-0.18,0.81-0.58,1.51-1.18,2.04c-1.38,1.22-1.75,2.79-1.75,4.53c0,0.72,0.06,1.44-0.16,2.14
		c-0.37,1.18-1.34,1.6-2.4,1.03c-1.44-0.78-3.01-1.04-4.62-1.09c-2.84-0.09-5.67,0.21-8.5,0.4c-1.93,0.13-3.83,0.01-5.7-0.48
		c-0.61-0.16-1.15-0.15-1.74,0.09c-3.1,1.27-5.85,0.67-8.2-1.74c-1.77-1.82-2.84-4.54-2.67-6.92c3.17-0.47,3.57-2.93,3.75-5.5
		c0.11-1.6,0.01-3.19-0.16-4.78c-0.57-5.3-0.09-10.61-0.11-15.92c-0.01-1.44-0.1-2.87-0.1-4.31c0-0.78-0.24-1.37-0.9-1.83
		c-0.89-0.62-1.56-1.48-2.22-2.33C1245.93,288.21,1245.77,287.28,1246.47,286.1z M1271.45,299.01c-0.03-0.2-0.02-0.36-0.09-0.49
		c-0.9-1.86-1.93-3.68-2.01-5.83c-0.01-0.33-0.26-0.47-0.55-0.55c-1.61-0.44-3.16-0.37-4.62,0.51c-0.38,0.23-0.72,0.55-0.63,1.06
		c0.37,2.01,0.1,4.07,0.44,6.08c0.07,0.43,0.09,0.87,0.61,1.06c1.19,0.42,2.65-0.15,3.15-1.32c0.34-0.8,0.8-1.09,1.67-0.78
		C1270.05,298.97,1270.71,299.16,1271.45,299.01z"/>
	<path class="st1" d="M1133.52,282.57c-2.48-1.81-4.99-1.65-7.64-0.1c1.7-2.3,4.26-2.68,6.74-1.06c0.59,0.38,1.07,0.6,1.73,0.15
		c3.01-2.07,6.13-0.89,8.3,1.36c0.79,0.82,1.53,1.68,2.38,2.63c0.36-0.69,0.61-1.22,0.9-1.72c1.62-2.76,4.33-3.8,7.36-2.82
		c0.47,0.15,0.9,0.25,1.39,0.08c3.81-1.36,8.09,0.84,9.26,5.89c0.21,0.89,0.39,1.8,0.2,2.82c-3.46,0.7-3.96,3.42-3.99,6.29
		c-0.08,6.11,0.38,12.21,0.21,18.32c-0.08,2.87-0.24,5.74-0.92,8.55c-1.51,6.23-5.17,9.63-11.55,10.49
		c-5.25,0.71-10.1-0.36-14.32-3.69c-1.62-1.28-2.71-2.99-3.59-4.89c0.14,0.01,0.24-0.01,0.26,0.02c2.58,3.98,6.64,5.13,10.98,5.7
		c2.03,0.26,4.06,0.22,6.09-0.14c5.96-1.05,8.95-4.03,10.02-10c0.73-4.11,0.67-8.25,0.56-12.41c-0.13-4.95-0.07-9.9-0.34-14.84
		c-0.05-0.96,0.02-1.91,0.25-2.85c0.37-1.51,1.14-2.67,2.53-3.46c1.64-0.93,1.69-1.57,0.65-3.15c-1.11-1.69-2.58-2.42-4.59-2.03
		c-1.59,0.31-3.19,0.24-4.75-0.17c-3.02-0.81-5.04,1.31-5.57,3.68c-0.15,0.67-0.03,1.18,0.61,1.51c0.25,0.13,0.47,0.31,0.74,0.4
		c2.24,0.72,2.83,2.45,2.92,4.57c0.2,4.87-0.14,9.74-0.03,14.61c0.07,2.99,0.36,5.98,0.22,8.98c-0.08,1.68-0.21,3.35-0.72,4.96
		c-0.96,3-3.4,4.15-6.41,3.25c-3.22-0.96-3.78-3.61-4.25-6.31c-0.51-2.93-0.26-5.89-0.19-8.84c0.11-4.59-0.12-9.18-0.25-13.77
		c-0.03-1.12,0.02-2.23,0.11-3.35c0.14-1.64,0.86-2.84,2.28-3.7c1.54-0.94,1.68-1.56,0.96-3.26c-1.15-2.72-4.64-3.75-7.58-2.23
		C1134.17,282.15,1133.9,282.33,1133.52,282.57z M1145.45,288.32c-0.09,1.27-0.74,1.83-1.66,2.18c-1.61,0.61-2.23,1.87-2.41,3.52
		c-0.25,2.32,0.01,4.62,0.03,6.93c0.03,4.47-0.01,8.94,0.02,13.41c0.02,2.48,0.29,4.93,1.05,7.31c0.13,0.39,0.18,0.86,0.73,1
		c2.75,0.68,5.09-0.04,6.07-2.74c0.34-0.94,0.51-1.92,0.64-2.91c0.41-3.15,0.04-6.29-0.02-9.44c-0.1-5.14,0.2-10.29-0.21-15.43
		c-0.03-0.31,0.1-0.71-0.21-0.9C1148.12,290.44,1147.1,289.15,1145.45,288.32z"/>
	<path class="st1" d="M1047.57,347.51c-1.27,2.11-1.52,4.48-2.81,6.71c-0.57-2.14-0.95-4.05-1.6-5.88c-1.05-2.95-2.4-5.75-4.47-8.14
		c-0.35-0.41-0.42-0.8-0.32-1.31c0.46-2.23,0.15-4.37-0.84-6.4c-0.23-0.47-0.22-0.79,0.1-1.18c1.59-1.9,2.98-3.95,4.33-6.02
		c0.54-0.82,1.04-0.85,1.73-0.27c0.52,0.44,1.01,0.92,1.57,1.3c0.94,0.63,1.39,0.52,1.92-0.47c0.58-1.09,1.1-2.22,1.65-3.32
		c0.4-0.79,0.95-1.45,1.89-2.11c-0.12,1.12-0.2,2.01-0.3,2.89c-0.21,1.8-0.2,3.59,0.17,5.36c0.6,2.87,2.16,5.02,4.91,6.22
		c1.42,0.62,2.92,1.11,4.19,2.05c0.71,0.53,1.2,1.16,0.89,2.14c-0.23,0.73-0.63,0.96-1.35,0.69c-0.97-0.37-1.67-1.06-2.33-1.83
		c-0.88-1.03-1.87-1.86-3.36-1.76c-0.72,0.05-1.1,0.22-1.24,1.08c-0.43,2.66,0.43,3.95,3.08,4.33c1.14,0.16,2.3,0.29,3.43,0.52
		c1.2,0.24,2.27,0.76,3.08,1.72c0.93,1.08,2.25,1.29,3.53,1.6c0.85,0.2,1.72,0.38,2.56,0.6c0.53,0.14,0.72,0.48,0.67,1.07
		c-0.28,3.03-2.5,4.34-5.26,3.05c-1.31-0.61-2.41-1.57-3.56-2.43c-2-1.5-4.21-2.03-6.66-1.78c-0.67,0.07-1.35,0.14-2.03,0.15
		c-3.42,0.04-6.06-3.71-4.9-6.94c0.43-1.19,0.7-1.31,1.84-0.79c0.25,0.12,0.49,0.27,0.75,0.37c0.51,0.19,1.09,0.31,1.37-0.27
		c0.27-0.55-0.1-1.03-0.55-1.32c-2.59-1.66-4.72-0.83-5.44,2.07c-0.49,1.98,0.33,3.77,1.25,5.48
		C1046.01,345.7,1046.69,346.63,1047.57,347.51z"/>
	<path class="st1" d="M1394.42,304.91c-0.18-0.06-0.41-0.07-0.54-0.19c-3.24-3-7.11-5.16-10.6-7.82c-0.6-0.46-1.22-0.92-1.75-1.45
		c-1.68-1.67-1.79-4.08-0.31-5.85c1.52-1.83,3.92-1.89,5.58-0.19c0.39,0.4,0.33,0.76,0.2,1.19c-0.35,1.16-0.52,2.33-0.28,3.54
		c0.54,2.76,2.93,4.43,5.97,4.16c2.81-0.25,4.67-2.25,4.77-5.05c0.05-1.37-0.31-2.61-0.89-3.8c-0.3-0.62-0.34-1.19-0.09-1.83
		c0.45-1.17,0.59-2.4,0.45-3.65c-0.13-1.17-0.45-1.44-1.6-1.38c-3.57,0.17-7.08-0.52-10.62-0.81c-2.04-0.17-4.08-0.2-6.09,0.22
		c-4.81,1-7.68,4.25-8.59,9.43c-1.07,6.05,1.48,10.48,6.12,13.97c2.26,1.71,4.63,3.27,6.94,4.93c1.4,1,2.72,2.1,3.78,3.48
		c0.46,0.61,0.86,1.25,1.15,1.95c1.6,3.84-0.12,7.35-4.15,8.34c-2.75,0.68-5.21,0.09-7.31-1.9c-0.7-0.66-0.72-1.26-0.1-1.94
		c0.13-0.15,0.22-0.35,0.37-0.47c2.01-1.54,1.78-5,0.66-6.58c-1.43-2.02-4.1-2.95-6.6-2.18c-2.48,0.77-4.02,2.75-4.19,5.54
		c-0.18,3.02,0.58,5.78,2.53,8.14c0.43,0.52,0.49,1.05,0.49,1.66c-0.01,1.67,0.24,3.27,1.37,4.6c0.36,0.42,0.8,0.84,1.33,0.48
		c3.2-2.13,6.44-0.72,9.73-0.29c5.76,0.76,10.77-0.91,14.33-5.62c3.58-4.73,3.9-9.99,1.56-15.4c-0.79-1.82-2.12-3.28-3.41-4.75
		c0.15,0.04,0.35,0.02,0.45,0.12c3.47,3.41,6.23,7.19,6.36,12.32c0.2,7.92-4.66,14.26-12.41,16.22c-2.83,0.72-5.67,0.79-8.55,0.23
		c-2.15-0.41-4.31-0.94-6.52-0.33c-0.31,0.08-0.53-0.01-0.76-0.21c-2.23-2.01-4.07-4.21-3.83-7.48c0.05-0.62-0.23-1.05-0.58-1.51
		c-1.79-2.37-2.81-5.03-2.62-8.02c0.36-5.54,5.69-8.57,10.7-6.13c3.55,1.73,4.85,4.78,3.68,8.55c-0.4,1.3-1.13,2.45-1.67,3.89
		c2.17,0.93,4.29,0.93,6.37,0c2.19-0.97,2.91-2.97,1.94-5.17c-0.62-1.42-1.69-2.51-2.82-3.53c-1.93-1.75-4.12-3.16-6.18-4.74
		c-3.73-2.85-6.6-6.38-8.26-10.8c-2.32-6.17,0.11-13.27,5.58-16.39c2.95-1.68,6.14-1.88,9.42-1.33c1.97,0.33,3.93,0.69,5.91,0.99
		c1.35,0.21,2.71,0.14,4.05-0.15c1.47-0.32,1.87-0.16,2.55,1.18c1.01,1.98,1.2,4.05,0.46,6.15c-0.27,0.75-0.23,1.32,0.14,2.02
		c0.94,1.8,1.13,3.73,0.56,5.7c-0.79,2.72-2.96,4.43-5.79,4.57c-0.31,0.02-0.63-0.04-1.03,0.24
		C1392.34,303.1,1393.67,303.79,1394.42,304.91z M1386.55,298.32c0.18-2.29-0.33-4.11-0.91-5.92c-0.09-0.29-0.38-0.39-0.66-0.47
		c-0.86-0.26-1.72-0.34-2.59-0.1c-1.19,0.33-1.47,0.94-0.94,2.05C1382.46,295.98,1384.44,296.96,1386.55,298.32z"/>
	<path class="st1" d="M1296.15,360.65c-0.21,1.21-0.48,2.41-0.62,3.63c-0.65,5.59-0.71,11.19,0.93,16.63
		c1.98,6.6,5.93,11.5,12.92,13.21c7.61,1.86,15.43-1.89,19.37-9.08c2.94-5.38,3.92-11.18,3.6-17.23c-0.28-5.25-1.5-10.26-4.2-14.83
		c-2.7-4.57-6.45-7.72-11.92-8.28c-5.34-0.54-9.87,1.34-13.8,4.87c-0.86,0.77-1.8,1.45-2.55,2.33c0.91-1.63,3.68-4.36,6.15-5.74
		c7.54-4.22,16.96-2.31,22.58,4.58c3.83,4.7,5.78,10.17,6.56,16.09c0.85,6.46,0.23,12.77-2.59,18.72
		c-2.31,4.87-5.69,8.78-10.79,10.9c-7.9,3.28-17.16,0.38-22.26-6.88c-2.61-3.72-3.96-7.9-4.62-12.33
		c-0.79-5.31-0.52-10.59,0.83-15.8c0.07-0.27,0.17-0.52,0.25-0.79C1296.03,360.65,1296.09,360.65,1296.15,360.65z"/>
	<path class="st1" d="M1021.83,316.51c0.89,0.73,1.79,1.45,2.65,2.2c3.32,2.9,6.81,5.55,10.74,7.56c0.42,0.22,0.83,0.48,1.22,0.76
		c1.25,0.89,1.44,1.44,0.21,2.36c-2.07,1.53-2.04,3.09-1,5.19c0.86,1.73,0.99,3.7,0.54,5.62c-0.16,0.67,0.19,1.04,0.58,1.46
		c0.75,0.81,1.71,1.46,1.97,2.77c-3.36,1.07-6.45,2.7-9.4,4.89c-0.39-2.51-0.88-4.83-2.09-6.85c-1.17-1.95-2.07-3.71-1.23-6.14
		c0.53-1.52-0.19-3.14-1.38-4.38c-0.22-0.23-0.43-0.48-0.62-0.73c-1.07-1.35-1.14-1.79-0.16-3.19c1.11-1.6,0.93-3.33,0.66-5.07
		c-0.25-1.6-1.03-3.01-1.81-4.41c-0.35-0.62-0.71-1.24-1.06-1.86C1021.71,316.64,1021.77,316.58,1021.83,316.51z"/>
	<path class="st1" d="M1325.32,308.32c-0.1,5.38-0.83,10.94-3.85,15.91c-3.74,6.16-9.05,9.85-16.46,9.79
		c-5.97-0.05-10.61-2.87-14.26-7.43c-3.19-3.99-5-8.59-5.67-13.65c-0.85-6.41-0.6-12.74,1.5-18.92c1.46-4.29,3.7-8.06,7.5-10.7
		c5.76-4,13.64-3.97,19.88,0.08c5.29,3.44,8.27,8.52,10.01,14.43C1324.96,301.16,1325.27,304.57,1325.32,308.32z M1285.09,306.45
		c-0.04,5.56,0.88,10.91,3.76,15.75c4.35,7.31,10.68,9.88,19.22,8.16c5.19-1.05,8.52-4.64,10.89-9.18
		c2.01-3.85,2.96-7.99,3.26-12.29c0.45-6.36-0.32-12.52-3.18-18.29c-3.46-6.99-10.8-10.75-18.48-9.45
		c-5.59,0.94-9.42,4.29-11.98,9.2C1285.95,295.38,1285.14,300.84,1285.09,306.45z"/>
	<path class="st1" d="M1184.82,314.73c1.75,2.14,3.59,4.24,4.84,6.76c0.75,1.51,0.64,3.1,0.34,4.69c-0.2,1.06-0.4,2.12-0.67,3.16
		c-0.21,0.81,0.15,0.99,0.84,1.02c0.82,0.03,1.6-0.14,2.32-0.48c1.3-0.61,2.61-0.65,3.97-0.25c0.42,0.12,0.85,0.22,1.28,0.32
		c3.25,0.75,5.83-0.85,6.61-4.07c0.16-0.66,0.04-1.12-0.61-1.34c-3.03-1.02-4.05-3.25-4.08-6.29c-0.02-2.12,0.04-4.23,0.18-6.34
		c0.31-4.75,0.15-9.5,0-14.25c-0.07-2.08,0.04-4.15,0.21-6.22c0.18-2.12,1.29-3.58,3.25-4.34c0.95-0.37,1.06-0.89,0.74-1.74
		c-0.28-0.75-0.56-1.5-1.02-2.16c-0.82-1.2-1.95-1.85-3.39-1.44c-1.9,0.55-3.73,0.5-5.65,0.05c-2.21-0.52-3.85,0.57-5.13,2.25
		c0.56-2.05,2.95-3.46,4.54-3.03c2.1,0.57,4.16,0.37,6.28,0.04c2.14-0.33,3.77,0.83,4.97,2.51c1.27,1.77,1.66,3.86,2.02,5.96
		c0.1,0.6-0.23,0.95-0.75,1.03c-2.83,0.45-3.17,2.49-3.32,4.83c-0.25,3.99-0.2,7.98-0.16,11.97c0.04,3.59,0.03,7.19,0.06,10.78
		c0.01,1.4,0.1,2.79,0.12,4.19c0.01,0.64,0.22,1.04,0.88,1.22c0.42,0.11,0.81,0.33,1.19,0.55c1.73,1.02,2.22,2.59,1.35,4.4
		c-1.52,3.19-6.78,6.28-10.65,4.37c-0.62-0.31-1.15-0.08-1.73,0.05c-1.03,0.22-2.04,0.84-3.03-0.34c-1.16-1.38-2.35-2.66-1.75-4.66
		c0.11-0.38,0.24-0.77,0.41-1.12c1.26-2.58,0.62-4.88-1.03-7.03C1187.02,318.15,1185.54,316.72,1184.82,314.73z"/>
	<path class="st1" d="M1170.69,303.43c0.16,4.7,0.32,9.41,0.48,14.11c0.02,0.6-0.05,1.2-0.03,1.8c0.05,2.48-1.08,4.22-3.37,5.12
		c-1.06,0.41-1.1,1.08-0.84,1.98c0.81,2.87,3.83,4.37,6.79,3.29c0.77-0.28,1.4-0.27,2.16,0.03c2.66,1.07,6.1-0.65,6.97-3.39
		c0.28-0.87,0.02-1.51-0.74-1.92c-0.59-0.33-1.22-0.59-1.85-0.84c-1.29-0.5-1.88-1.44-2.08-2.8c-0.38-2.6-0.08-5.18,0.09-7.77
		c0.15-2.38,0.23-4.75,0.05-7.15c0.52,0.04,0.71,0.39,0.93,0.64c1.6,1.75,2.75,3.81,4.22,6.04c-0.9-0.49-1.39-1.18-2.27-1.19
		c-0.74,1.12-0.68,2.43-0.74,3.67c-0.11,2.52,0.24,5.02,0.36,7.53c0.02,0.49,0.27,0.71,0.73,0.77c2.52,0.36,3.35,2.5,2.76,4.77
		c-0.45,1.72-1.35,3.14-2.77,4.22c-1.24,0.94-2.66,1.04-4.11,0.72c-1.55-0.34-3.06-0.34-4.6,0.14c-1.81,0.56-3.56-0.19-4.75-1.91
		c-1.44-2.08-1.8-4.48-2.05-6.96c0.15-0.08,0.28-0.18,0.42-0.2c2.45-0.43,3.55-1.47,4.04-3.9c0.48-2.33,0.36-4.7,0.2-7.04
		C1170.44,309.94,1170.52,306.67,1170.69,303.43z"/>
	<path class="st1" d="M1191.95,299.52c0.38-0.68,0.38-1.36,0.39-2.04c0.01-0.72-0.05-1.44,0.01-2.15c0.18-2.24,0.1-4.29-2.33-5.5
		c-0.9-0.45-1.42-1.48-1.97-2.37c-0.41-0.66-0.43-1.25,0.16-2.03c0.02,1.4,0.84,1.77,1.93,2.05c1.83,0.47,2.31,2.07,2.59,3.68
		c0.2,1.14,0.31,2.29,0.26,3.46c-0.08,1.87-0.19,3.75-0.23,5.62c-0.04,1.83-0.01,3.67-0.01,5.49c-0.47,0.14-0.61-0.23-0.8-0.44
		c-0.92-1-1.73-2.1-2.45-3.25c-1.88-2.97-3.87-5.86-6.01-8.65c-1.73-2.25-3.07-4.68-2.7-7.7c0.16-1.32,0.72-2.5,1.2-3.73
		c-0.79-0.69-1.65-0.71-2.43-0.38c-2.07,0.86-4.11,0.63-6.21,0.14c-1.68-0.39-3.25,0.02-4.66,1.01c-0.44,0.31-0.86,0.66-1.41,1.09
		c1.84-2.59,4.94-3.52,8.07-2.48c0.76,0.25,1.4,0.28,2.16-0.04c2.2-0.91,4.84-0.37,6.23,1.14c0.5,0.55,0.7,1.03,0.28,1.8
		c-1,1.82-0.92,3.74,0.13,5.49c1.8,2.97,3.85,5.77,5.96,8.53C1190.57,298.82,1191.07,299.37,1191.95,299.52z"/>
	<path class="st1" d="M1421.33,343.74c3.49,0,6.05,2.49,6.06,5.88c0.01,3.4-2.84,6.3-6.2,6.32c-3.61,0.02-6.58-2.62-6.6-5.87
		C1414.57,346.35,1417.34,343.74,1421.33,343.74z M1424.24,353.64c1.2-0.52,1.74-1.3,1.98-2.32c0.86-3.59-1.33-6.42-5.1-6.58
		c-2.39-0.11-4.48,1.1-5.25,3.03c-0.84,2.09-0.27,4.55,1.32,5.92c1.82,1.56,4.64,1.61,6.58,0.8c0.52-0.22,0.51-0.78,0.02-0.85
		c-1.18-0.17-1.17-0.98-1.27-1.81c-0.11-0.93-0.62-1.28-1.56-1.19c-0.97,0.09-1.2,0.6-1.04,1.46c0.04,0.23,0.03,0.48,0.01,0.72
		c-0.02,0.31,0.02,0.67-0.42,0.74c-0.43,0.07-0.78-0.02-0.98-0.47c-0.23-0.52-0.33-1.08-0.34-1.63c-0.03-1.63-0.01-3.26-0.01-4.92
		c1.62-0.42,3.01-0.71,4.45-0.34c1.32,0.34,1.79,1.32,1.19,2.53c-0.39,0.78-0.38,1.54-0.07,2.31
		C1424.06,351.8,1424.35,352.58,1424.24,353.64z M1421.14,347.3c-0.65,0.05-1.24,0.16-1.22,0.99c0.02,0.76,0.6,0.91,1.16,0.9
		c0.65-0.01,1.2-0.33,1.22-1.05C1422.33,347.35,1421.69,347.34,1421.14,347.3z"/>
	<path class="st1" d="M1051.28,364.3c-0.39-0.35-0.27-0.79-0.19-1.22c0.7-3.82-0.2-7.26-2.42-10.4c-1-1.4-0.76-2.8,0.65-3.81
		c0.56-0.4,1-0.46,1.37,0.2c0.22,0.38,0.5,0.73,0.66,1.14c1.06,2.75,2.32,5.44,3.09,8.29
		C1055.23,361.41,1053.94,363.72,1051.28,364.3z"/>
	<path class="st1" d="M1124.25,285.71c0.17,1.03,0.86,1.61,1.77,1.92c1.09,0.37,1.55,1.15,1.75,2.21c0.31,1.63,0.23,3.26,0.18,4.9
		c-0.22,6.86-0.6,13.72-0.2,20.59c0.01,0.16,0,0.31-0.04,0.47c-0.37-1.85-0.37-3.73-0.44-5.6c-0.07-1.88-0.13-3.75-0.06-5.63
		c0.15-3.99,0.13-7.99,0.08-11.98c-0.01-0.74-0.4-1.03-0.94-1.37C1124.43,290.02,1123.66,288.02,1124.25,285.71z"/>
	<path class="st1" d="M1165.92,287.2c-0.02-0.88,0.21-1.5,0.65-2.14c-0.46,1.54,0.44,2.26,1.62,2.63c2.12,0.65,2.75,2.14,2.78,4.18
		c0.03,2.58-0.03,5.15-0.09,7.72c-0.1,0-0.2,0-0.3,0c0-1.99,0.02-3.98-0.01-5.97c-0.01-0.63-0.12-1.27-0.23-1.9
		C1169.9,289.25,1168.58,287.59,1165.92,287.2z"/>
	<path class="st1" d="M1056.57,338.89c-0.42,1.29-1.04,1.34-1.8,1c-1.11-0.51-1.45-1.33-0.94-2.44
		C1054.82,337.79,1054.96,339.48,1056.57,338.89z"/>
	<path class="st1" d="M1247.47,283.28c0.88-2.29,2.71-3.02,5.29-2.01c-1.14,0.07-2.05,0.12-2.9,0.48
		C1248.97,282.12,1248.24,282.71,1247.47,283.28z"/>
	<path class="st1" d="M1327.35,287.87c1.84,0.66,2.88,1.87,2.93,3.91c0.03,1.15,0.16,2.3-0.15,3.41c-0.08-1.19-0.07-2.41-0.25-3.63
		c-0.21-1.4-0.84-2.47-2.03-3.22c-0.19-0.12-0.44-0.2-0.47-0.49L1327.35,287.87z"/>
	<path class="st1" d="M1329.88,303.73c0.1,2.3,0.11,4.6,0,7.1C1329.76,308.33,1329.74,306.03,1329.88,303.73z"/>
	<path class="st1" d="M1394.13,285.54c0.24,0.8-0.14,1.25-0.41,1.73c-0.42,0.75-0.5,1.37,0.06,2.19c1.09,1.6,1.3,3.42,0.63,5.26
		c-0.48,1.33-1.66,1.85-2.99,1.45c-1.83-0.56-3.12-3.36-1.6-4.95c1.14-1.19,0.99-1.88-0.22-3.05c-2.27-2.2-6.53-2.74-9.28-1.19
		c-1.89,1.07-2.83,3.09-2.54,5.4c0.37,2.92,1.98,5.07,4.23,6.84c2.2,1.73,4.6,3.17,6.88,4.79c2.26,1.6,4.37,3.36,5.93,5.69
		c3.34,4.99,2.65,12.08-1.59,15.91c-2.45,2.22-5.46,3.06-8.69,3.25c-2.01,0.12-3.98-0.1-5.94-0.59c-1.6-0.4-3.19-0.59-4.82,0.03
		c-1.19,0.46-1.85,0-1.52-1.21c0.51-1.85-0.23-2.85-1.41-4.17c-1.83-2.03-2.18-4.67-1.4-7.33c0.62-2.11,2.38-3.08,4.34-2.52
		c1.38,0.39,1.96,1.45,2.18,2.73c0.22,1.25-0.18,2.3-1.34,2.94c-2.32,1.28-2.44,1.67-0.8,4.09c3.47,5.09,12.14,5.25,15.7,0.3
		c2.08-2.9,1.9-6.02,0.31-9.05c-1.41-2.69-3.82-4.47-6.2-6.23c-2.54-1.87-5.2-3.58-7.52-5.73c-3.27-3.03-4.66-6.71-3.74-11.12
		c0.83-3.98,3.78-6.51,7.85-6.93c3.47-0.36,6.84,0.34,10.23,0.85C1391.7,285.1,1392.91,285.33,1394.13,285.54z"/>
	<path class="st1" d="M1196.96,368.5c0.12,0.09,0.22,0.22,0.35,0.28c2.35,1.01,3.59,2.94,4.4,5.25c0.9,2.58,1.21,5.28,1.83,7.92
		c0.23,0.97,0.48,1.94,0.75,2.9c0.48,1.7,1.32,3.14,2.8,4.2c0.53,0.38,1.37,0.83,1,1.7c-0.39,0.92-1.29,1.12-2.23,1.04
		c-0.97-0.08-1.89-0.36-2.73-0.84c-0.72-0.41-1.3-0.32-1.99,0.1c-1.46,0.89-1.79,0.77-2.49-0.84c-1.06-2.42-1.25-5.02-1.5-7.6
		c-0.23-2.42-0.38-4.85-0.94-7.23c-1.02-4.31-2.95-6.47-9.01-6.11c-2.52,0.15-3.42,0.95-3.65,3.44c-0.41,4.41-0.67,8.84,0.05,13.25
		c0.23,1.41,0.6,2.72,2,3.48c0.36,0.2,0.81,0.53,0.71,1.02c-0.1,0.55-0.6,0.82-1.11,0.99c-1.09,0.37-2.13,0-2.96-0.58
		c-1.33-0.92-2.43-1.23-3.87-0.13c-0.81,0.62-1.96,0.9-3.08,0.45c-1.19-0.48-1.39-1.12-0.51-2c1.68-1.67,2.36-3.65,2.51-6.01
		c0.33-5.44,0-10.86-0.19-16.28c-0.11-3.12,0.03-6.23,0.23-9.33c0.19-2.95-0.18-5.66-2.44-7.82c-0.11-0.11-0.18-0.26-0.27-0.4
		c-0.08-0.13-0.17-0.27-0.28-0.45c0.64-0.87,1.47-1.14,2.5-0.9c1.08,0.25,1.98,0.86,2.84,1.5c0.64,0.48,1.13,0.42,1.82,0.04
		c4.65-2.55,9.54-3.09,14.56-1.28c6.71,2.42,8.98,10.19,4.74,15.94c-0.83,1.13-1.82,2.11-2.84,3.08
		C1197.6,367.64,1197.11,367.9,1196.96,368.5z M1183.24,358.86c0.14,2.21,0.25,3.92,0.37,5.63c0.12,1.69,0.4,2.02,2.1,2.49
		c6.26,1.72,12.13-3.1,11.61-9.54c-0.31-3.91-2.33-6.92-5.55-7.75c-4.88-1.26-7.85,0.61-8.35,5.37
		C1183.27,356.48,1183.12,357.92,1183.24,358.86z"/>
	<path d="M1421.14,347.3c0.55,0.04,1.19,0.05,1.17,0.84c-0.02,0.72-0.57,1.05-1.22,1.05c-0.57,0.01-1.14-0.15-1.16-0.9
		C1419.9,347.46,1420.49,347.35,1421.14,347.3z"/>
	<path class="st1" d="M1241.96,348.97c-2.1,2.18-2.09,4.78-1.4,7.28c2.41,8.69,3.99,17.59,6.43,26.27c0.79,2.81,1.78,5.56,3.68,7.85
		c-0.61,1.1-1.31,1.46-2.42,1.18c-0.98-0.24-1.88-0.71-2.65-1.34c-0.66-0.54-1.15-0.63-1.85-0.01c-0.71,0.63-1.6,1.04-2.56,1.26
		c-1.29,0.29-1.84,0.02-2.48-1.24c0.05-0.41,0.45-0.53,0.7-0.76c1.81-1.68,2.3-4.1,0.98-6.18c-2.51-3.95-6.17-6-10.87-5.74
		c-4.54,0.26-7.82,5.71-6.16,9.97c0.36,0.93,1.11,1.54,1.72,2.28c0.29,0.34,0.81,0.64,0.48,1.22c-0.31,0.54-0.83,0.71-1.43,0.67
		c-0.78-0.06-1.49-0.37-2.09-0.83c-0.63-0.48-1.1-0.52-1.78-0.02c-1.05,0.75-2.26,1.01-3.49,0.33c-0.29-0.16-0.48-0.41-0.5-0.88
		c2.98-1.88,4.04-5.04,5.12-8.19c2.76-8,5.43-16.02,8.56-23.89c0.71-1.78,1.28-3.62,1.24-5.57c-0.02-0.98-0.25-1.89-0.77-2.73
		c-0.24-0.39-0.94-0.72-0.39-1.31c0.48-0.52,1.09-0.82,1.83-0.65c1.11,0.24,2.11,0.74,3.02,1.41c0.67,0.5,1.21,0.57,1.88-0.04
		c0.68-0.62,1.52-1.02,2.41-1.29C1240.28,347.66,1241.18,347.94,1241.96,348.97z M1239.48,378.61c-1.08-7.85-3.32-15.33-5.28-23.13
		c-1.4,1.31-2.11,2.73-2.62,4.23c-1.57,4.56-3.26,9.07-4.6,13.7c-0.11,0.37-0.33,0.73-0.07,1.28
		C1231.53,374.36,1235.5,376.37,1239.48,378.61z"/>
	<path class="st1" d="M1321.41,368.73c-0.04,4.58-0.53,9.08-2.29,13.37c-0.47,1.15-1.06,2.24-1.86,3.2
		c-2.31,2.82-5.85,2.74-8.06-0.19c-0.96-1.27-1.5-2.74-1.86-4.25c-1.81-7.65-1.81-15.26,0.59-22.81c0.55-1.73,1.38-3.32,2.69-4.62
		c2.34-2.33,5.51-2.11,7.44,0.58c1.93,2.68,2.54,5.82,3.01,8.99C1321.35,364.9,1321.41,366.82,1321.41,368.73z M1320.85,368.74
		c0.09-1.24-0.05-3.23-0.21-5.22c-0.19-2.35-0.57-4.68-1.61-6.83c-0.77-1.58-1.85-2.81-3.78-2.9c-2.04-0.1-3.38,0.96-4.35,2.63
		c-0.67,1.15-1.07,2.41-1.32,3.7c-1.12,5.92-1.22,11.89-0.61,17.87c0.23,2.22,0.64,4.42,1.59,6.47c1.03,2.22,2.12,2.61,4.38,1.64
		c0.59-0.25,1.12-0.61,1.59-1.05c1-0.95,1.71-2.09,2.24-3.36C1320.4,377.78,1320.64,373.64,1320.85,368.74z"/>
	<path class="st1" d="M1348.19,348.11c-0.09,0.97-0.18,1.71-0.22,2.46c-0.14,2.27,0.44,4.36,1.67,6.25
		c0.78,1.21,1.57,2.41,2.47,3.53c2.87,3.59,5.49,7.36,7.89,11.28c0.94,1.54,2.02,2.97,3.33,4.22c0.27,0.26,0.47,0.65,1.16,0.65
		c0-1.59-0.03-3.16,0.01-4.74c0.12-4.63,0.7-9.24,0.58-13.87c-0.01-0.56-0.02-1.12-0.03-1.68c-0.05-2.55-0.7-4.8-2.99-6.31
		c-0.43-0.28-1.04-0.67-0.74-1.33c0.29-0.65,0.95-0.82,1.62-0.82c0.95,0,1.81,0.33,2.51,0.97c0.43,0.39,0.78,0.39,1.26,0.05
		c0.72-0.51,1.5-0.93,2.41-0.99c0.84-0.06,1.48,0.21,1.77,1.2c-3.09,1.95-3.57,5.14-3.69,8.36c-0.28,7.22-0.61,14.44-0.53,21.67
		c0.02,1.64,0.12,3.27,0.28,4.9c0.17,1.71,0.82,3.25,2.07,4.47c0.57,0.55,1.24,1.01,1.79,1.45c-0.52,1.16-1.22,1.47-2.04,1.57
		c-1.32,0.17-2.58-0.16-3.67-0.85c-0.85-0.54-1.51-0.55-2.25,0.08c-0.23,0.19-0.51,0.4-0.96,0.28c0.18-1.24,0.4-2.48,0.19-3.76
		c-0.47-2.9-1.93-5.33-3.71-7.54c-3.01-3.75-5.62-7.76-8.2-11.79c-0.95-1.48-2.01-2.89-3.28-4.11c-0.33-0.32-0.65-0.69-1.25-0.83
		c-0.08,0.65-0.19,1.23-0.22,1.81c-0.27,6.02-0.74,12.03-0.41,18.07c0.17,3.05,1.03,5.63,3.6,7.4c-0.73,1.69-1.34,1.64-4.83-0.25
		c-2.39,1.71-3.58,1.8-4.65,0.25c3.48-2.26,3.65-5.92,3.84-9.52c0.23-4.51-0.15-9.02-0.21-13.53c-0.04-3.24,0.32-6.46,0.45-9.69
		c0.12-3.03-0.51-5.71-3.07-7.65c-0.16-0.12-0.27-0.29-0.4-0.45c-0.05-0.06-0.07-0.14-0.16-0.32c0.64-1.01,1.68-1.19,2.77-1.12
		c0.92,0.06,1.87,0.26,2.61,0.8c0.92,0.66,1.66,0.57,2.44-0.15C1347.57,348.38,1347.81,348.31,1348.19,348.11z"/>
	<path class="st1" d="M1116.48,304.6c-0.16,7.02-1.49,13.73-5.41,19.71c-2.89,4.42-6.81,7.41-12.19,8.02
		c-3.74,0.42-7.33-0.02-10.43-2.49c-1.48-1.18-2.36-1.09-3.84,0.1c-0.5,0.4-0.98,0.83-1.54,1.14c-1.11,0.62-2.23,0.54-3.27-0.21
		c-1-0.72-1.18-1.23-0.26-2.01c3.25-2.73,3.34-6.43,3.06-10.12c-0.64-8.35-0.07-16.68,0.02-25.02c0.03-2.71-0.02-5.43-0.35-8.13
		c-0.19-1.58-0.77-2.93-2.13-3.85c-0.13-0.09-0.27-0.19-0.36-0.31c-0.43-0.56-1.4-0.84-1-1.82c0.32-0.77,1.73-1.41,2.67-1.24
		c0.93,0.17,1.69,0.69,2.41,1.27c2.2,1.81,2.3,1.95,4.56,0.42c5.98-4.02,16.6-3.01,22.31,4.85c3.31,4.56,4.88,9.73,5.49,15.26
		C1116.39,301.64,1116.55,303.11,1116.48,304.6z M1089.87,306.62c0,5.1-0.04,9.02,0.02,12.93c0.03,2,0.28,3.98,1.08,5.85
		c0.89,2.06,2.44,3.34,4.66,3.69c2.09,0.33,4.05-0.09,5.84-1.26c3.13-2.05,4.74-5.12,5.7-8.58c2.24-8.05,2.39-16.22,1.09-24.44
		c-0.57-3.63-1.85-7-3.91-10.07c-1.94-2.89-4.56-4.2-8.06-3.87c-3.3,0.31-5.58,2.18-6.3,5.42c-0.6,2.71-0.6,5.47-0.52,8.22
		C1089.62,298.95,1089.96,303.38,1089.87,306.62z"/>
	<path class="st1" d="M1126.44,343.88c0.93-1.5,1.86-1.85,3.45-1.27c1.17,0.43,2.23,1.09,3.15,1.93c0.62,0.56,1.07,0.53,1.77,0.08
		c4.22-2.73,8.85-3.6,13.76-2.63c5.21,1.04,8.62,4.48,11.12,8.92c3.09,5.49,4.21,11.48,4.38,17.71c0.18,6.44-0.99,12.55-4.43,18.09
		c-2.47,3.97-5.67,7.13-10.2,8.65c-4.56,1.52-8.9,0.95-12.96-1.61c-2.13-1.34-2.49-1.37-4.62,0.06c-0.83,0.55-1.64,1.15-2.62,1.42
		c-1.06,0.3-1.85-0.02-2.49-0.91c-0.3-0.42-0.36-0.78-0.02-1.18c0.34-0.39,0.64-0.83,1.03-1.16c1.59-1.39,2.24-3.18,2.23-5.22
		c-0.02-5.99,0.06-11.97,0.28-17.96c0.18-4.83,0.27-9.66,0.14-14.49c-0.04-1.55-0.24-3.1-0.32-4.65c-0.09-1.67-0.91-2.93-2.07-4.04
		C1127.46,345.1,1126.83,344.66,1126.44,343.88z M1137.62,369.05c-0.01,0-0.02,0-0.03,0c0,3.63-0.01,7.27,0,10.9
		c0.01,2.35-0.09,4.71,0.22,7.06c0.48,3.6,2.5,5.61,6.06,5.96c2.62,0.26,4.77-0.71,6.59-2.51c3.06-3.02,4.39-6.88,5.19-10.97
		c1.15-5.84,1.26-11.74,0.64-17.64c-0.4-3.85-1.15-7.65-2.86-11.19c-1.62-3.35-4.36-5.24-7.94-5.92c-3.65-0.69-6.71,1.43-7.45,5.05
		c-0.32,1.57-0.43,3.16-0.43,4.76C1137.61,359.38,1137.62,364.22,1137.62,369.05z"/>
	<path class="st1" d="M1287.85,371.61c-2.46,2.06-3.08,4.85-3.19,7.78c-0.11,2.87-0.03,5.75-0.03,8.62c0,0.71,0,1.41,0,2.12
		c-0.94,0.17-1.21-0.47-1.61-0.86c-0.48-0.45-0.93-0.73-1.56-0.2c-3.87,3.25-8.29,3.38-12.9,2.16c-4.25-1.12-7.01-3.98-8.86-7.83
		c-2.33-4.85-2.92-10.01-2.51-15.3c0.4-5.12,1.72-9.99,4.63-14.3c2.47-3.67,5.74-6.18,10.24-6.82c1.93-0.27,3.82-0.04,5.69,0.45
		c2.31,0.6,4.59,1.38,7.04,1.36c0.3,0.68-0.01,1.15-0.42,1.52c-0.87,0.79-0.99,1.53-0.3,2.59c1.01,1.55,1.11,3.31,0.51,5.07
		c-0.41,1.2-1.24,1.93-2.56,2c-1.28,0.07-2.3-0.48-2.76-1.51c-0.54-1.22-0.34-2.33,0.52-3.34c1.87-2.17,1.83-2.54-0.5-4.33
		c-2.4-1.85-6.12-1.93-8.78-0.18c-2.37,1.56-3.79,3.86-4.83,6.41c-2.06,5.08-2.7,10.41-2.52,15.84c0.12,3.64,0.6,7.24,2.01,10.65
		c0.7,1.69,1.67,3.16,3.15,4.29c2.6,1.99,6.72,1.94,9.27-0.14c1.27-1.04,1.52-2.51,1.53-4c0.01-1.51-0.19-3.02-0.26-4.54
		c-0.04-0.88-0.13-1.78,0.02-2.63c0.27-1.49-0.34-2.55-1.37-3.49c-0.56-0.51-1.1-1.04-1.4-1.74c0.77-1,1.62-1.27,2.83-0.78
		c0.77,0.31,1.51,0.73,2.22,1.18c0.61,0.4,1.13,0.46,1.75,0.02c0.72-0.51,1.48-0.93,2.35-1.17
		C1286.44,370.21,1287.03,370.43,1287.85,371.61z"/>
	<path class="st1" d="M1234.68,308.52c3.31-2.38,4.41-2.54,5.58-0.75c-3.35,2.93-3.06,6.93-3,10.84c0.03,2.07,0.15,4.15,0.08,6.22
		c-0.02,0.43,0.03,0.89-0.26,1.3c-0.6,0.07-0.89-0.43-1.25-0.76c-0.61-0.56-1.16-0.66-1.89-0.12c-1.78,1.3-3.65,2.5-5.88,2.85
		c-5.65,0.9-10.11-1.15-13.47-5.66c-2.82-3.8-4.03-8.23-4.43-12.86c-0.49-5.56,0.15-11,2.36-16.19c1.42-3.32,3.38-6.25,6.46-8.29
		c3.08-2.03,6.45-2.44,9.99-1.68c2.61,0.56,5.15,1.46,7.82,1.46c0.31,0.81-0.14,1.3-0.54,1.8c-0.55,0.7-0.65,1.31-0.13,2.16
		c0.92,1.51,1.27,3.18,0.76,4.94c-0.38,1.31-1.21,2.1-2.41,2.17c-1.05,0.06-1.98-0.26-2.56-1.22c-0.68-1.11-0.6-2.28,0.2-3.35
		c0.1-0.13,0.2-0.25,0.31-0.37c1.58-1.77,1.61-1.9-0.22-3.68c-3.33-3.25-8.81-2.6-11.78,1.32c-2.08,2.74-3.13,5.91-3.77,9.23
		c-1.35,7.01-1.29,13.97,1.04,20.8c0.48,1.4,1.15,2.72,2.06,3.9c2.31,3.03,7.02,3.84,10.22,1.73c0.94-0.62,1.56-1.45,1.76-2.6
		c0.61-3.5,0.58-6.99-0.05-10.48c-0.19-1.03-0.72-1.82-1.57-2.45c-0.59-0.44-1.43-0.96-0.91-1.82c0.5-0.81,1.44-0.73,2.28-0.41
		C1232.65,306.99,1233.55,307.88,1234.68,308.52z"/>
	<path class="st1" d="M1383.6,391.62c-0.68-1.24,0-2.29,0.31-3.5c-1.76-1.18-2.78-2.94-3.33-4.99c-0.34-1.28-0.52-2.57-0.18-3.9
		c0.46-1.77,1.83-2.92,3.61-2.94c1.42-0.02,2.57,0.88,2.97,2.32c0.46,1.68-0.22,3.57-1.83,4.25c-1.18,0.5-1.07,1.14-0.73,2.05
		c0.98,2.62,2.91,4.15,5.57,4.78c3.05,0.73,5.96,0.29,8.67-1.28c3.72-2.15,4.86-6.2,2.92-10.27c-1.09-2.31-2.91-3.97-4.88-5.5
		c-2.9-2.25-6.1-4.1-8.83-6.59c-2.33-2.13-4.04-4.6-4.46-7.84c-0.71-5.53,3.26-10.45,8.8-10.9c3.76-0.3,7.39,0.55,11.05,1.1
		c0.85,0.13,1.75,0.1,2.54,0.44c0.14,0.73-0.21,1.24-0.5,1.75c-0.44,0.75-0.47,1.38,0.07,2.18c1.07,1.62,1.26,3.42,0.47,5.25
		c-0.44,1.02-1.22,1.54-2.34,1.56c-1.17,0.01-2-0.54-2.47-1.58c-0.7-1.57-0.43-3.09,0.59-4.4c0.55-0.71,0.43-1.16-0.04-1.77
		c-2.77-3.58-9.77-3.02-11.88,0.99c-0.86,1.63-0.72,3.32-0.07,4.99c0.78,2,2.21,3.49,3.83,4.83c2.4,1.99,5.15,3.5,7.67,5.32
		c1.2,0.87,2.36,1.77,3.41,2.82c6.69,6.69,4.46,15.75-2.86,20.03c-2.97,1.74-6.16,1.76-9.42,1.24
		C1389.4,391.6,1386.54,391.06,1383.6,391.62z"/>
	<path class="st1" d="M1319.69,305.24c-0.01,5.2-0.63,10.31-2.99,15c-2.48,4.96-6.5,8.02-12.16,8.24c-5.31,0.2-9.65-1.92-12.62-6.44
		c-2.87-4.37-3.94-9.28-4.11-14.43c-0.19-5.8,0.76-11.38,3.58-16.52c2.06-3.75,4.91-6.62,9.29-7.48c6.42-1.26,11.33,1.18,15,6.37
		c2.91,4.13,3.87,8.86,4.01,13.82C1319.7,304.28,1319.69,304.76,1319.69,305.24z M1293.53,304.86c-0.04,1.98,0.13,4.57,0.49,7.14
		c0.5,3.53,1.38,6.93,3.03,10.15c2.37,4.64,9.35,4.98,12.26,1.15c1.71-2.25,2.77-4.75,3.45-7.43c1.49-5.89,1.54-11.84,0.56-17.81
		c-0.5-3.01-1.26-5.94-2.9-8.56c-2.76-4.41-7.79-5.08-11.66-1.58c-1.58,1.43-2.65,3.17-3.36,5.16
		C1294.12,296.68,1293.72,300.44,1293.53,304.86z"/>
	<path class="st1" d="M1195.04,357.77c0.03,3.79-2.41,6.69-6,7.19c-0.78,0.11-1.5-0.11-2.25-0.21c-0.48-0.06-0.6-0.46-0.66-0.88
		c-0.42-3.08-0.87-6.16-0.53-9.29c0.22-2.06,1.37-3.09,3.41-3.01C1192.69,351.71,1195.01,354.1,1195.04,357.77z M1188.2,359.88
		c0.01,0.81,0.1,1.6,0.24,2.39c0.3,1.77,0.92,2.18,2.64,1.6c1.77-0.59,2.52-2.01,2.72-3.74c0.23-1.95,0.24-3.91-1.62-5.18
		c-1.47-1.01-3.39-0.14-3.65,1.6C1188.37,357.65,1188.3,358.77,1188.2,359.88z"/>
	<path class="st1" d="M1233.66,362.89c0.92,3.72,1.9,7.26,2.61,10.99c-1.97-0.4-3.75-0.8-5.42-1.58c-0.43-0.2-0.9-0.37-0.63-1.05
		c0.89-2.26,1.35-4.68,2.41-6.88C1232.87,363.88,1233.09,363.38,1233.66,362.89z M1234.29,369.7c-1.04,0.22-1.18,0.97-1.19,1.73
		c-0.01,0.76,0.6,1,1.21,1c0.66,0,0.66-0.59,0.61-1.06C1234.87,370.8,1234.75,370.22,1234.29,369.7z"/>
	<path class="st1" d="M1092.8,305.86c-0.03-4.83-0.43-9.65-0.24-14.48c0.08-2.08,0.35-4.14,1.24-6.05c0.84-1.8,1.7-2.2,3.63-1.86
		c2.37,0.42,4.03,1.81,5.27,3.79c1.56,2.49,2.23,5.28,2.65,8.13c1.07,7.24,1.07,14.46-0.44,21.65c-0.61,2.9-1.8,5.52-3.84,7.72
		c-1.11,1.2-2.42,1.9-4.08,1.96c-1.6,0.07-2.67-0.66-3.31-2.07c-0.6-1.33-0.86-2.75-0.87-4.19
		C1092.78,315.59,1092.8,310.72,1092.8,305.86z M1096.47,325.19c1.99,0,3.48-0.74,4.75-2.27c1.73-2.09,2.58-4.58,3.12-7.17
		c1.43-6.89,1.32-13.8,0.15-20.7c-0.42-2.47-0.98-4.93-2.46-7.06c-1.14-1.64-2.7-2.12-4.61-1.78c-0.77,0.14-1.2,0.48-1.16,1.35
		c0.03,0.79-0.1,1.59-0.13,2.39c-0.27,8.14-0.43,16.28-0.06,24.42C1096.23,317.94,1096.33,321.53,1096.47,325.19z"/>
	<path class="st1" d="M1140.51,366.13c-0.3-3.64-0.27-7.4-0.19-11.15c0.04-1.68,0.26-3.34,0.71-4.96c0.79-2.78,2.94-3.73,5.56-2.44
		c2.27,1.12,3.65,3.06,4.67,5.27c1.45,3.12,2.01,6.47,2.33,9.85c0.58,6.08,0.27,12.12-1.16,18.07c-0.5,2.1-1.16,4.16-2.4,5.96
		c-1.07,1.55-2.4,2.78-4.28,3.27c-2.24,0.58-4.16-0.45-4.95-2.64c-0.57-1.61-0.65-3.29-0.56-4.96c0.27-5.18,0.34-10.37,0.26-15.56
		C1140.51,366.63,1140.51,366.43,1140.51,366.13z M1143.58,371.31c0.01,0,0.02,0,0.04,0c0,5.47-0.01,10.94,0,16.41
		c0,1.3,0.47,1.66,1.72,1.32c1.71-0.46,2.93-1.59,3.89-3.02c1.11-1.64,1.83-3.45,2.31-5.36c1.85-7.39,1.88-14.85,0.69-22.32
		c-0.35-2.21-0.97-4.36-2.3-6.23c-1.12-1.58-2.59-2.4-4.6-2.25c-0.78,0.06-1.15,0.36-1.25,1.11c-0.27,1.9-0.51,3.79-0.5,5.71
		C1143.58,361.57,1143.58,366.44,1143.58,371.31z"/>
	<path class="st1" d="M1310.67,298.82c0.88,6.01,0.95,12-0.68,17.92c-0.46,1.66-1.08,3.26-2.2,4.61c-3.3,3.99-7.34,2.05-9-0.86
		c-1.29-2.25-1.83-4.76-2.19-7.3c-0.85-5.94-0.78-11.86,0.64-17.72c0.48-1.98,1.09-3.94,2.51-5.5c2.83-3.12,6.51-2.69,8.55,0.99
		c0.28,0.51,0.51,1.05,0.78,1.6c-0.43,0.15-0.47-0.19-0.57-0.35c-1.74-2.62-5.25-2.75-7.24-0.26c-0.86,1.08-1.37,2.34-1.74,3.65
		c-0.75,2.67-1.01,5.41-1.01,8.17c0,4.83,0.21,9.65,1.2,14.41c0.19,0.9,0.47,1.77,0.89,2.6c1.32,2.6,3.88,3.04,5.99,1.03
		c1.5-1.43,2.27-3.26,2.83-5.19c1.17-3.98,1.48-8.07,1.44-12.2C1310.86,302.55,1310.77,300.68,1310.67,298.82z"/>
	<path d="M1234.29,369.7c0.46,0.52,0.58,1.1,0.64,1.68c0.05,0.47,0.05,1.06-0.61,1.06c-0.61,0-1.22-0.25-1.21-1
		C1233.11,370.67,1233.25,369.92,1234.29,369.7z"/>
</g>
</svg>
